G04 #@! TF.GenerationSoftware,KiCad,Pcbnew,10.0.6*
G04 #@! TF.CreationDate,2026-10-06T18:57:38+02:00*
G04 #@! TF.ProjectId,recruitment,72656372-7569-4746-9d65-6e742e6b6963,A*
G04 #@! TF.SameCoordinates,Original*
G04 #@! TF.FileFunction,Copper,L2,Bot*
G04 #@! TF.FilePolarity,Positive*
%FSLAX46Y46*%
G04 Gerber Fmt 4.6, Leading zero omitted, Abs format (unit mm)*
G04 Created by KiCad (PCBNEW 10.0.6) date 2026-10-06 18:57:38*
%MOMM*%
%LPD*%
G01*
G04 APERTURE LIST*
G04 Aperture macros list*
%AMRoundRect*
0 Rectangle with rounded corners*
0 $1 Rounding radius*
0 $2 $3 $4 $5 $6 $7 $8 $9 X,Y pos of 4 corners*
0 Add a 4 corners polygon primitive as box body*
4,1,4,$2,$3,$4,$5,$6,$7,$8,$9,$2,$3,0*
0 Add four circle primitives for the rounded corners*
1,1,$1+$1,$2,$3*
1,1,$1+$1,$4,$5*
1,1,$1+$1,$6,$7*
1,1,$1+$1,$8,$9*
0 Add four rect primitives between the rounded corners*
20,1,$1+$1,$2,$3,$4,$5,0*
20,1,$1+$1,$4,$5,$6,$7,0*
20,1,$1+$1,$6,$7,$8,$9,0*
20,1,$1+$1,$8,$9,$2,$3,0*%
G04 Aperture macros list end*
G04 #@! TA.AperFunction,ComponentPad*
%ADD10C,8.600000*%
G04 #@! TD*
G04 #@! TA.AperFunction,ComponentPad*
%ADD11C,3.500000*%
G04 #@! TD*
G04 #@! TA.AperFunction,ComponentPad*
%ADD12C,3.000000*%
G04 #@! TD*
G04 #@! TA.AperFunction,ComponentPad*
%ADD13C,2.000000*%
G04 #@! TD*
G04 #@! TA.AperFunction,ComponentPad*
%ADD14RoundRect,0.258334X0.751666X-0.516666X0.751666X0.516666X-0.751666X0.516666X-0.751666X-0.516666X0*%
G04 #@! TD*
G04 #@! TA.AperFunction,ComponentPad*
%ADD15O,2.020000X1.550000*%
G04 #@! TD*
G04 #@! TA.AperFunction,SMDPad,CuDef*
%ADD16R,0.500000X1.600000*%
G04 #@! TD*
G04 #@! TA.AperFunction,SMDPad,CuDef*
%ADD17R,0.900000X0.600000*%
G04 #@! TD*
G04 #@! TA.AperFunction,SMDPad,CuDef*
%ADD18R,1.800000X1.700000*%
G04 #@! TD*
G04 #@! TA.AperFunction,SMDPad,CuDef*
%ADD19RoundRect,0.225000X-0.250000X0.225000X-0.250000X-0.225000X0.250000X-0.225000X0.250000X0.225000X0*%
G04 #@! TD*
G04 #@! TA.AperFunction,ViaPad*
%ADD20C,0.900000*%
G04 #@! TD*
G04 #@! TA.AperFunction,ViaPad*
%ADD21C,1.100000*%
G04 #@! TD*
G04 #@! TA.AperFunction,Conductor*
%ADD22C,0.500000*%
G04 #@! TD*
G04 #@! TA.AperFunction,Conductor*
%ADD23C,0.250000*%
G04 #@! TD*
G04 APERTURE END LIST*
D10*
X64000000Y-62000000D03*
D11*
X84850000Y-61600000D03*
X79750000Y-61600000D03*
X100250000Y-61600000D03*
X95150000Y-61600000D03*
D12*
X81850000Y-82500000D03*
X98150000Y-82500000D03*
D13*
X62000000Y-110500000D03*
D10*
X138000000Y-62000000D03*
D14*
X56000000Y-104000000D03*
D15*
X56000000Y-101000000D03*
D16*
X127600000Y-67450000D03*
X126000000Y-67450000D03*
X124400000Y-67450000D03*
D17*
X123200000Y-64950000D03*
D18*
X124500000Y-62600000D03*
X127500000Y-62600000D03*
D17*
X128800000Y-64950000D03*
D19*
X128600000Y-69625000D03*
X128600000Y-71175000D03*
D20*
X103500000Y-96000000D03*
X97500000Y-96000000D03*
X102500000Y-93750000D03*
X101000000Y-93750000D03*
X99500000Y-93750000D03*
X98000000Y-93750000D03*
X104000000Y-92250000D03*
X102500000Y-92250000D03*
X101000000Y-92250000D03*
X99500000Y-92250000D03*
X98000000Y-92250000D03*
X104000000Y-93750000D03*
X120500000Y-116000000D03*
X69000000Y-80000000D03*
X54000000Y-77500000D03*
D21*
X75000000Y-104000000D03*
X54500000Y-82500000D03*
D20*
X116500000Y-116000000D03*
X102500000Y-108500000D03*
X135000000Y-93000000D03*
X122500000Y-75500000D03*
D21*
X125500000Y-98500000D03*
X54500000Y-87000000D03*
D20*
X69000000Y-81500000D03*
X67000000Y-89000000D03*
D21*
X59000000Y-80000000D03*
D20*
X71500000Y-91000000D03*
X125832062Y-77832062D03*
X90500000Y-103500000D03*
X99000000Y-107000000D03*
X126653078Y-79225000D03*
X112000000Y-116000000D03*
X137500000Y-90500000D03*
X143000000Y-94500000D03*
X69000000Y-78500000D03*
X135325000Y-84000000D03*
D21*
X76500000Y-104000000D03*
D20*
X73000000Y-97500000D03*
X133926103Y-76926103D03*
X113500000Y-67000000D03*
X134500000Y-73500000D03*
X124500000Y-69000000D03*
X130500000Y-80325000D03*
X130000000Y-78775000D03*
D21*
X114000000Y-54500000D03*
X119000000Y-62000000D03*
X119000000Y-59500000D03*
X116500000Y-54500000D03*
X114000000Y-59500000D03*
X119000000Y-54500000D03*
X119000000Y-57000000D03*
X116500000Y-59500000D03*
X114000000Y-62000000D03*
X116500000Y-62000000D03*
X116500000Y-57000000D03*
X114000000Y-57000000D03*
D20*
X129000000Y-112500000D03*
X129000000Y-89000000D03*
X130000000Y-98500000D03*
X123500000Y-107500000D03*
X130000000Y-96000000D03*
X123500000Y-110000000D03*
X134500000Y-96025000D03*
X134500000Y-94475000D03*
D21*
X132000000Y-63500000D03*
X132000000Y-58500000D03*
X132000000Y-61000000D03*
X132000000Y-53500000D03*
X132000000Y-56000000D03*
D22*
X127600000Y-68625000D02*
X128600000Y-69625000D01*
X127600000Y-67450000D02*
X127600000Y-68625000D01*
X127600000Y-67100000D02*
X127600000Y-67450000D01*
X126700000Y-66200000D02*
X127600000Y-67100000D01*
X128600000Y-69625000D02*
X130625000Y-69625000D01*
X113500000Y-67000000D02*
X114300000Y-66200000D01*
X114300000Y-66200000D02*
X126700000Y-66200000D01*
X130625000Y-69625000D02*
X134500000Y-73500000D01*
D23*
X124400000Y-67450000D02*
X124400000Y-68900000D01*
X124400000Y-68900000D02*
X124500000Y-69000000D01*
X130500000Y-79275000D02*
X130500000Y-80325000D01*
X130000000Y-78775000D02*
X130500000Y-79275000D01*
X129000000Y-89000000D02*
X129000000Y-112500000D01*
X130000000Y-96000000D02*
X130000000Y-98500000D01*
X123500000Y-107500000D02*
X123500000Y-110000000D01*
X134500000Y-94475000D02*
X134500000Y-96025000D01*
G04 #@! TA.AperFunction,Conductor*
G36*
X87425500Y-52019962D02*
G01*
X87480038Y-52074500D01*
X87500000Y-52149000D01*
X87500000Y-63351000D01*
X87480038Y-63425500D01*
X87425500Y-63480038D01*
X87351000Y-63500000D01*
X87000000Y-63500000D01*
X87000000Y-66500000D01*
X87351000Y-66500000D01*
X87425500Y-66519962D01*
X87480038Y-66574500D01*
X87500000Y-66649000D01*
X87500000Y-67351000D01*
X87480038Y-67425500D01*
X87425500Y-67480038D01*
X87351000Y-67500000D01*
X59149000Y-67500000D01*
X59074500Y-67480038D01*
X59019962Y-67425500D01*
X59000000Y-67351000D01*
X59000000Y-52149000D01*
X59019962Y-52074500D01*
X59074500Y-52019962D01*
X59149000Y-52000000D01*
X87351000Y-52000000D01*
X87425500Y-52019962D01*
G37*
G04 #@! TD.AperFunction*
G04 #@! TA.AperFunction,Conductor*
G36*
X140369947Y-52005077D02*
G01*
X140385417Y-52009222D01*
X140452212Y-52047785D01*
X140490776Y-52114576D01*
X140494922Y-52130047D01*
X140500000Y-52168616D01*
X140500000Y-66831383D01*
X140494922Y-66869952D01*
X140490776Y-66885423D01*
X140452209Y-66952216D01*
X140385425Y-66990775D01*
X140369955Y-66994921D01*
X140331384Y-67000000D01*
X131168616Y-67000000D01*
X131130049Y-66994922D01*
X131120127Y-66992263D01*
X131114576Y-66990776D01*
X131047783Y-66952209D01*
X131009221Y-66885414D01*
X131005076Y-66869943D01*
X131000000Y-66831383D01*
X131000000Y-64000000D01*
X127214136Y-64000000D01*
X127194682Y-63998724D01*
X127175486Y-63996196D01*
X127156377Y-63992395D01*
X127139983Y-63988002D01*
X126905924Y-63957190D01*
X126905919Y-63957188D01*
X126881531Y-63953978D01*
X126847512Y-63949500D01*
X126847509Y-63949500D01*
X126654500Y-63949500D01*
X126580000Y-63929538D01*
X126525462Y-63875000D01*
X126505500Y-63800500D01*
X126505500Y-52149000D01*
X126525462Y-52074500D01*
X126580000Y-52019962D01*
X126654500Y-52000000D01*
X140331384Y-52000000D01*
X140369947Y-52005077D01*
G37*
G04 #@! TD.AperFunction*
G04 #@! TA.AperFunction,Conductor*
G36*
X125925500Y-52019962D02*
G01*
X125980038Y-52074500D01*
X126000000Y-52149000D01*
X126000000Y-63800500D01*
X125980038Y-63875000D01*
X125925500Y-63929538D01*
X125851000Y-63949500D01*
X114152494Y-63949500D01*
X114118467Y-63953979D01*
X114118465Y-63953979D01*
X113860021Y-63988003D01*
X113860004Y-63988006D01*
X113834192Y-63994923D01*
X113795629Y-64000000D01*
X93149000Y-64000000D01*
X93074500Y-63980038D01*
X93019962Y-63925500D01*
X93000000Y-63851000D01*
X93000000Y-63500000D01*
X92149000Y-63500000D01*
X92074500Y-63480038D01*
X92019962Y-63425500D01*
X92000000Y-63351000D01*
X92000000Y-52149000D01*
X92019962Y-52074500D01*
X92074500Y-52019962D01*
X92149000Y-52000000D01*
X125851000Y-52000000D01*
X125925500Y-52019962D01*
G37*
G04 #@! TD.AperFunction*
G04 #@! TA.AperFunction,Conductor*
G36*
X56920000Y-58019962D02*
G01*
X56974538Y-58074500D01*
X56994500Y-58149000D01*
X56994500Y-67351011D01*
X57008682Y-67589087D01*
X57008683Y-67589098D01*
X57062827Y-67870025D01*
X57062831Y-67870045D01*
X57062834Y-67870056D01*
X57082792Y-67944541D01*
X57082793Y-67944544D01*
X57082800Y-67944570D01*
X57140905Y-68126340D01*
X57140912Y-68126358D01*
X57259775Y-68386630D01*
X57259778Y-68386636D01*
X57312901Y-68469296D01*
X57414477Y-68627351D01*
X57601859Y-68843603D01*
X57656397Y-68898141D01*
X57719156Y-68955193D01*
X57797616Y-69026517D01*
X57797617Y-69026518D01*
X57797619Y-69026519D01*
X57797622Y-69026522D01*
X58030706Y-69192500D01*
X58285039Y-69323617D01*
X58285042Y-69323618D01*
X58285046Y-69323620D01*
X58555432Y-69417200D01*
X58555444Y-69417204D01*
X58555451Y-69417206D01*
X58555458Y-69417208D01*
X58629929Y-69437162D01*
X58629944Y-69437166D01*
X58678087Y-69447040D01*
X58863570Y-69485084D01*
X58863580Y-69485085D01*
X58863588Y-69485087D01*
X59149000Y-69505500D01*
X87350995Y-69505500D01*
X87351000Y-69505500D01*
X87589086Y-69491318D01*
X87589094Y-69491316D01*
X87589098Y-69491316D01*
X87870025Y-69437172D01*
X87870025Y-69437171D01*
X87870056Y-69437166D01*
X87944556Y-69417204D01*
X88126350Y-69359091D01*
X88386634Y-69240223D01*
X88627351Y-69085523D01*
X88843603Y-68898141D01*
X88898141Y-68843603D01*
X89026522Y-68702378D01*
X89192500Y-68469294D01*
X89323617Y-68214961D01*
X89354283Y-68126358D01*
X89374635Y-68067551D01*
X89417204Y-67944556D01*
X89437166Y-67870056D01*
X89485087Y-67636412D01*
X89505500Y-67351000D01*
X89505500Y-66649000D01*
X89525462Y-66574500D01*
X89580000Y-66519962D01*
X89654500Y-66500000D01*
X93000000Y-66500000D01*
X93000000Y-66154500D01*
X93019962Y-66080000D01*
X93074500Y-66025462D01*
X93149000Y-66005500D01*
X112790572Y-66005500D01*
X112865072Y-66025462D01*
X112919610Y-66080000D01*
X112939572Y-66154500D01*
X112919610Y-66229000D01*
X112895931Y-66259859D01*
X112894093Y-66261697D01*
X112894088Y-66261701D01*
X112794677Y-66361112D01*
X112761698Y-66394091D01*
X112752625Y-66407670D01*
X112662523Y-66542517D01*
X112657677Y-66549769D01*
X112657672Y-66549778D01*
X112586027Y-66722747D01*
X112586025Y-66722753D01*
X112549500Y-66906382D01*
X112549500Y-67093616D01*
X112586025Y-67277245D01*
X112586027Y-67277251D01*
X112657672Y-67450220D01*
X112657676Y-67450229D01*
X112657679Y-67450234D01*
X112657680Y-67450235D01*
X112672614Y-67472585D01*
X112761698Y-67605908D01*
X112894092Y-67738302D01*
X112997174Y-67807179D01*
X113049764Y-67842319D01*
X113049773Y-67842324D01*
X113100436Y-67863309D01*
X113222749Y-67913973D01*
X113406384Y-67950500D01*
X113593616Y-67950500D01*
X113777251Y-67913973D01*
X113950231Y-67842322D01*
X114105908Y-67738302D01*
X114238302Y-67605908D01*
X114342322Y-67450231D01*
X114413973Y-67277251D01*
X114433571Y-67178720D01*
X114446072Y-67141891D01*
X114451085Y-67131726D01*
X114461069Y-67111479D01*
X114489342Y-67072023D01*
X114553359Y-67008007D01*
X114584218Y-66984331D01*
X114608245Y-66970460D01*
X114682741Y-66950500D01*
X123480884Y-66950500D01*
X123519447Y-66955577D01*
X123534917Y-66959722D01*
X123601712Y-66998285D01*
X123640276Y-67065076D01*
X123644422Y-67080547D01*
X123649500Y-67119116D01*
X123649500Y-68297855D01*
X123649503Y-68297904D01*
X123655097Y-68349930D01*
X123655909Y-68357483D01*
X123666638Y-68386251D01*
X123669068Y-68392766D01*
X123677785Y-68430667D01*
X123679838Y-68452166D01*
X123670006Y-68521292D01*
X123664779Y-68534463D01*
X123659255Y-68546323D01*
X123659303Y-68546346D01*
X123657679Y-68549766D01*
X123586026Y-68722751D01*
X123586025Y-68722753D01*
X123549500Y-68906382D01*
X123549500Y-69093616D01*
X123586025Y-69277245D01*
X123586027Y-69277251D01*
X123657672Y-69450220D01*
X123657677Y-69450231D01*
X123657682Y-69450238D01*
X123685129Y-69491316D01*
X123727024Y-69554015D01*
X123761698Y-69605908D01*
X123894092Y-69738302D01*
X123997174Y-69807179D01*
X124049764Y-69842319D01*
X124049773Y-69842324D01*
X124100436Y-69863309D01*
X124222749Y-69913973D01*
X124406384Y-69950500D01*
X124593616Y-69950500D01*
X124777251Y-69913973D01*
X124950231Y-69842322D01*
X125105908Y-69738302D01*
X125238302Y-69605908D01*
X125342322Y-69450231D01*
X125413973Y-69277251D01*
X125450500Y-69093616D01*
X125450500Y-68906384D01*
X125448860Y-68898141D01*
X125416636Y-68736137D01*
X125413973Y-68722749D01*
X125357291Y-68585906D01*
X125342324Y-68549773D01*
X125342319Y-68549764D01*
X125288550Y-68469294D01*
X125238302Y-68394092D01*
X125208011Y-68363801D01*
X125184331Y-68332940D01*
X125170460Y-68308914D01*
X125150499Y-68234416D01*
X125150499Y-67119115D01*
X125155576Y-67080552D01*
X125159721Y-67065082D01*
X125198284Y-66998287D01*
X125265074Y-66959723D01*
X125280555Y-66955576D01*
X125319115Y-66950500D01*
X126307798Y-66950500D01*
X126346357Y-66955575D01*
X126373156Y-66962756D01*
X126439949Y-67001318D01*
X126439952Y-67001320D01*
X126617356Y-67178724D01*
X126791988Y-67353355D01*
X126815666Y-67384213D01*
X126829537Y-67408238D01*
X126849500Y-67482738D01*
X126849500Y-68698924D01*
X126878340Y-68843910D01*
X126878341Y-68843912D01*
X126934910Y-68980483D01*
X126934910Y-68980484D01*
X126934919Y-68980502D01*
X126962269Y-69021432D01*
X126962318Y-69021506D01*
X127017039Y-69103405D01*
X127017043Y-69103410D01*
X127017050Y-69103418D01*
X127330831Y-69417199D01*
X127566987Y-69653355D01*
X127590664Y-69684212D01*
X127604536Y-69708238D01*
X127624500Y-69782737D01*
X127624500Y-69898336D01*
X127633155Y-69983069D01*
X127634650Y-69997706D01*
X127634650Y-69997707D01*
X127687997Y-70158698D01*
X127777244Y-70303388D01*
X127787241Y-70322592D01*
X127795677Y-70342148D01*
X127806857Y-70418462D01*
X127806856Y-70418468D01*
X127806108Y-70424866D01*
X127787150Y-70482071D01*
X127786091Y-70483905D01*
X127779118Y-70494851D01*
X127777427Y-70497265D01*
X127688452Y-70641515D01*
X127688451Y-70641516D01*
X127647518Y-70765048D01*
X127637369Y-70780602D01*
X127635143Y-70802396D01*
X127635142Y-70802396D01*
X127625000Y-70901674D01*
X127625000Y-70925000D01*
X129574999Y-70925000D01*
X129574999Y-70901690D01*
X129565626Y-70809939D01*
X129565419Y-70805890D01*
X129564855Y-70802396D01*
X129564855Y-70802393D01*
X129564855Y-70802390D01*
X129511545Y-70641513D01*
X129497916Y-70619418D01*
X129481994Y-70583935D01*
X129478012Y-70570638D01*
X129475770Y-70493545D01*
X129512376Y-70425657D01*
X129578017Y-70385168D01*
X129582642Y-70383783D01*
X129589413Y-70381757D01*
X129632137Y-70375500D01*
X130232798Y-70375500D01*
X130271357Y-70380575D01*
X130298156Y-70387756D01*
X130364949Y-70426318D01*
X130364952Y-70426320D01*
X133507951Y-73569318D01*
X133531630Y-73600178D01*
X133548582Y-73629540D01*
X133565681Y-73674970D01*
X133586025Y-73777248D01*
X133586026Y-73777250D01*
X133657673Y-73950223D01*
X133657677Y-73950230D01*
X133657682Y-73950238D01*
X133701988Y-74016547D01*
X133727024Y-74054015D01*
X133761698Y-74105908D01*
X133894092Y-74238302D01*
X133997174Y-74307179D01*
X134049764Y-74342319D01*
X134049773Y-74342324D01*
X134100436Y-74363309D01*
X134222749Y-74413973D01*
X134406384Y-74450500D01*
X134593616Y-74450500D01*
X134777251Y-74413973D01*
X134950231Y-74342322D01*
X135105908Y-74238302D01*
X135238302Y-74105908D01*
X135342322Y-73950231D01*
X135413973Y-73777251D01*
X135450500Y-73593616D01*
X135450500Y-73406384D01*
X135413973Y-73222749D01*
X135342322Y-73049769D01*
X135238302Y-72894092D01*
X135105908Y-72761698D01*
X135054015Y-72727024D01*
X134950235Y-72657680D01*
X134950230Y-72657677D01*
X134950227Y-72657675D01*
X134919603Y-72644990D01*
X134879343Y-72628314D01*
X134840670Y-72598641D01*
X134678719Y-72566427D01*
X134641884Y-72553923D01*
X134611476Y-72538927D01*
X134572020Y-72510653D01*
X131321227Y-69259859D01*
X131282663Y-69193064D01*
X131282663Y-69115936D01*
X131321227Y-69049141D01*
X131388022Y-69010577D01*
X131426586Y-69005500D01*
X140331371Y-69005500D01*
X140331384Y-69005500D01*
X140593207Y-68988336D01*
X140631778Y-68983257D01*
X140889113Y-68932059D01*
X140904583Y-68927913D01*
X141130820Y-68852607D01*
X141388199Y-68727575D01*
X141454983Y-68689016D01*
X141556653Y-68623679D01*
X141615427Y-68585909D01*
X141615431Y-68585906D01*
X141615430Y-68585906D01*
X141615439Y-68585901D01*
X141836097Y-68403727D01*
X142028582Y-68192005D01*
X142188977Y-67955045D01*
X142227544Y-67888252D01*
X142334326Y-67674951D01*
X142427923Y-67404550D01*
X142427955Y-67404430D01*
X142432064Y-67389098D01*
X142432064Y-67389095D01*
X142432069Y-67389079D01*
X142483263Y-67131737D01*
X142488341Y-67093168D01*
X142505500Y-66831383D01*
X142505500Y-66466471D01*
X142525462Y-66391971D01*
X142549141Y-66361112D01*
X142630169Y-66280084D01*
X142734716Y-66157675D01*
X142853648Y-66018425D01*
X142951702Y-65903617D01*
X142951705Y-65903613D01*
X142951707Y-65903611D01*
X143242716Y-65503071D01*
X143501402Y-65080933D01*
X143726171Y-64639801D01*
X143915635Y-64182393D01*
X144054657Y-63754524D01*
X144060446Y-63745610D01*
X144114262Y-63521448D01*
X144184204Y-63230118D01*
X144184205Y-63230115D01*
X144261655Y-62741116D01*
X144300500Y-62247547D01*
X144300500Y-61752453D01*
X144261655Y-61258884D01*
X144184205Y-60769885D01*
X144068628Y-60288470D01*
X143915635Y-59817607D01*
X143726171Y-59360199D01*
X143501402Y-58919067D01*
X143242716Y-58496929D01*
X143065087Y-58252444D01*
X143046529Y-58218261D01*
X143041556Y-58205308D01*
X143033500Y-58128602D01*
X143064875Y-58058144D01*
X143127273Y-58012814D01*
X143134889Y-58009891D01*
X143188273Y-58000000D01*
X149331384Y-58000000D01*
X149369947Y-58005077D01*
X149385417Y-58009222D01*
X149452212Y-58047785D01*
X149490776Y-58114576D01*
X149492263Y-58120127D01*
X149494534Y-58128602D01*
X149494922Y-58130047D01*
X149500000Y-58168616D01*
X149500000Y-111831383D01*
X149494922Y-111869952D01*
X149490776Y-111885423D01*
X149452209Y-111952216D01*
X149385425Y-111990775D01*
X149369955Y-111994921D01*
X149331384Y-112000000D01*
X142000000Y-112000000D01*
X142000000Y-119331383D01*
X141994922Y-119369952D01*
X141990776Y-119385423D01*
X141952209Y-119452216D01*
X141885425Y-119490775D01*
X141869955Y-119494921D01*
X141831384Y-119500000D01*
X58168616Y-119500000D01*
X58130049Y-119494922D01*
X58120127Y-119492263D01*
X58114576Y-119490776D01*
X58047783Y-119452209D01*
X58009221Y-119385414D01*
X58005076Y-119369943D01*
X58000000Y-119331383D01*
X58000000Y-112000000D01*
X50668616Y-112000000D01*
X50630049Y-111994922D01*
X50620127Y-111992263D01*
X50614576Y-111990776D01*
X50547783Y-111952209D01*
X50509221Y-111885414D01*
X50505076Y-111869943D01*
X50500000Y-111831383D01*
X50500000Y-110381950D01*
X60500000Y-110381950D01*
X60500000Y-110618049D01*
X60519413Y-110740622D01*
X60536933Y-110851247D01*
X60536935Y-110851253D01*
X60609885Y-111075769D01*
X60609894Y-111075796D01*
X60609897Y-111075802D01*
X60609898Y-111075805D01*
X60717086Y-111286171D01*
X60717090Y-111286178D01*
X60777340Y-111369105D01*
X61367260Y-110779184D01*
X61434053Y-110740622D01*
X61511181Y-110740622D01*
X61577976Y-110779186D01*
X61593591Y-110799537D01*
X61593955Y-110799258D01*
X61599901Y-110807007D01*
X61692992Y-110900098D01*
X61700742Y-110906045D01*
X61699400Y-110907793D01*
X61744485Y-110952872D01*
X61764452Y-111027371D01*
X61744495Y-111101872D01*
X61720811Y-111132740D01*
X61130893Y-111722657D01*
X61130893Y-111722658D01*
X61213828Y-111782913D01*
X61424194Y-111890101D01*
X61424200Y-111890103D01*
X61424202Y-111890104D01*
X61424229Y-111890113D01*
X61501685Y-111915280D01*
X61648749Y-111963065D01*
X61881951Y-112000000D01*
X62118044Y-112000000D01*
X62118049Y-112000000D01*
X62351250Y-111963065D01*
X62575793Y-111890105D01*
X62575810Y-111890098D01*
X62786167Y-111782916D01*
X62786172Y-111782913D01*
X62847276Y-111738519D01*
X62869105Y-111722659D01*
X62869105Y-111722658D01*
X62279188Y-111132741D01*
X62240624Y-111065946D01*
X62240624Y-110988818D01*
X62279188Y-110922023D01*
X62299536Y-110906408D01*
X62299258Y-110906045D01*
X62307001Y-110900102D01*
X62307007Y-110900099D01*
X62400099Y-110807007D01*
X62400102Y-110807001D01*
X62406045Y-110799258D01*
X62407792Y-110800598D01*
X62452881Y-110755510D01*
X62527380Y-110735547D01*
X62601881Y-110755508D01*
X62632741Y-110779188D01*
X63222658Y-111369105D01*
X63222659Y-111369105D01*
X63282911Y-111286175D01*
X63282913Y-111286172D01*
X63282916Y-111286167D01*
X63390098Y-111075810D01*
X63390105Y-111075793D01*
X63463065Y-110851250D01*
X63500000Y-110618049D01*
X63500000Y-110381950D01*
X63463065Y-110148749D01*
X63393305Y-109934053D01*
X63390113Y-109924229D01*
X63390104Y-109924202D01*
X63390103Y-109924200D01*
X63390101Y-109924194D01*
X63288236Y-109724276D01*
X63285228Y-109717014D01*
X63282913Y-109713827D01*
X63222658Y-109630893D01*
X63222657Y-109630893D01*
X62632740Y-110220810D01*
X62565945Y-110259374D01*
X62488817Y-110259374D01*
X62422022Y-110220810D01*
X62406409Y-110200462D01*
X62406045Y-110200742D01*
X62400098Y-110192992D01*
X62307007Y-110099901D01*
X62299258Y-110093955D01*
X62300598Y-110092207D01*
X62255510Y-110047121D01*
X62235545Y-109972622D01*
X62255505Y-109898121D01*
X62279182Y-109867262D01*
X62869105Y-109277340D01*
X62869105Y-109277339D01*
X62815673Y-109238519D01*
X62786188Y-109217097D01*
X62786184Y-109217094D01*
X62786178Y-109217090D01*
X62786171Y-109217086D01*
X62786168Y-109217084D01*
X62786165Y-109217083D01*
X62752550Y-109199955D01*
X62575805Y-109109898D01*
X62575802Y-109109897D01*
X62575796Y-109109894D01*
X62575769Y-109109885D01*
X62351253Y-109036935D01*
X62351247Y-109036933D01*
X62258291Y-109022211D01*
X62118049Y-109000000D01*
X62118044Y-109000000D01*
X61881955Y-109000000D01*
X61881951Y-109000000D01*
X61734219Y-109023397D01*
X61648753Y-109036933D01*
X61648745Y-109036935D01*
X61424229Y-109109885D01*
X61424202Y-109109894D01*
X61424196Y-109109897D01*
X61213832Y-109217083D01*
X61213828Y-109217086D01*
X61213823Y-109217089D01*
X61184326Y-109238519D01*
X61130893Y-109277339D01*
X61720812Y-109867258D01*
X61759376Y-109934053D01*
X61759376Y-110011181D01*
X61720812Y-110077976D01*
X61700463Y-110093591D01*
X61700742Y-110093955D01*
X61692992Y-110099901D01*
X61599901Y-110192992D01*
X61593955Y-110200742D01*
X61592209Y-110199402D01*
X61547101Y-110244500D01*
X61472598Y-110264453D01*
X61398101Y-110244481D01*
X61367258Y-110220812D01*
X60777339Y-109630893D01*
X60717088Y-109713825D01*
X60717083Y-109713832D01*
X60609897Y-109924196D01*
X60609894Y-109924202D01*
X60609885Y-109924229D01*
X60536935Y-110148745D01*
X60536933Y-110148751D01*
X60528699Y-110200742D01*
X60500000Y-110381950D01*
X50500000Y-110381950D01*
X50500000Y-106902929D01*
X53054500Y-106902929D01*
X53054500Y-107097069D01*
X53092371Y-107287457D01*
X53092372Y-107287459D01*
X53141631Y-107406382D01*
X53166660Y-107466807D01*
X53274511Y-107628218D01*
X53411781Y-107765488D01*
X53573192Y-107873339D01*
X53573197Y-107873341D01*
X53647480Y-107904110D01*
X53647479Y-107904110D01*
X53721766Y-107934880D01*
X53752540Y-107947627D01*
X53942937Y-107985500D01*
X53942941Y-107985500D01*
X54137059Y-107985500D01*
X54137063Y-107985500D01*
X54327460Y-107947627D01*
X54506809Y-107873338D01*
X54668219Y-107765488D01*
X54805488Y-107628219D01*
X54913338Y-107466809D01*
X54938368Y-107406382D01*
X122549500Y-107406382D01*
X122549500Y-107593616D01*
X122586025Y-107777245D01*
X122586027Y-107777251D01*
X122657672Y-107950220D01*
X122657677Y-107950231D01*
X122657680Y-107950235D01*
X122681241Y-107985496D01*
X122681242Y-107985499D01*
X122681243Y-107985499D01*
X122761698Y-108105908D01*
X122761701Y-108105911D01*
X122816987Y-108161197D01*
X122840664Y-108192054D01*
X122854536Y-108216080D01*
X122874500Y-108290579D01*
X122874500Y-109199955D01*
X122869423Y-109238519D01*
X122862243Y-109265315D01*
X122823679Y-109332110D01*
X122761700Y-109394088D01*
X122657677Y-109549769D01*
X122657672Y-109549778D01*
X122586027Y-109722747D01*
X122586025Y-109722753D01*
X122549500Y-109906382D01*
X122549500Y-110093616D01*
X122586025Y-110277245D01*
X122586027Y-110277251D01*
X122657672Y-110450220D01*
X122657677Y-110450231D01*
X122657680Y-110450235D01*
X122727024Y-110554015D01*
X122761698Y-110605908D01*
X122894092Y-110738302D01*
X122996916Y-110807007D01*
X123049764Y-110842319D01*
X123049773Y-110842324D01*
X123064139Y-110848274D01*
X123071320Y-110851249D01*
X123071323Y-110851250D01*
X123222749Y-110913973D01*
X123406384Y-110950500D01*
X123593616Y-110950500D01*
X123777251Y-110913973D01*
X123950231Y-110842322D01*
X124105908Y-110738302D01*
X124238302Y-110605908D01*
X124342322Y-110450231D01*
X124413973Y-110277251D01*
X124450500Y-110093616D01*
X124450500Y-109906384D01*
X124448856Y-109898121D01*
X124414277Y-109724277D01*
X124413973Y-109722749D01*
X124342322Y-109549769D01*
X124238302Y-109394092D01*
X124183012Y-109338802D01*
X124159332Y-109307941D01*
X124145461Y-109283915D01*
X124125500Y-109209417D01*
X124125500Y-108300044D01*
X124130576Y-108261485D01*
X124135833Y-108241864D01*
X124137756Y-108234687D01*
X124176317Y-108167893D01*
X124238302Y-108105908D01*
X124342322Y-107950231D01*
X124413973Y-107777251D01*
X124450500Y-107593616D01*
X124450500Y-107406384D01*
X124413973Y-107222749D01*
X124342322Y-107049769D01*
X124238302Y-106894092D01*
X124105908Y-106761698D01*
X124054015Y-106727024D01*
X123950235Y-106657680D01*
X123950226Y-106657675D01*
X123950227Y-106657675D01*
X123950223Y-106657673D01*
X123813073Y-106600865D01*
X123813070Y-106600863D01*
X123802057Y-106596302D01*
X123782136Y-106588050D01*
X123778185Y-106586247D01*
X123766743Y-106583546D01*
X123762854Y-106583163D01*
X123593616Y-106549500D01*
X123406384Y-106549500D01*
X123222753Y-106586025D01*
X123222747Y-106586027D01*
X123049778Y-106657672D01*
X123049773Y-106657675D01*
X123049764Y-106657680D01*
X122971406Y-106710037D01*
X122894091Y-106761698D01*
X122761698Y-106894091D01*
X122657677Y-107049769D01*
X122657672Y-107049778D01*
X122586027Y-107222747D01*
X122586025Y-107222753D01*
X122549500Y-107406382D01*
X54938368Y-107406382D01*
X54987627Y-107287460D01*
X55025500Y-107097063D01*
X55025500Y-106902937D01*
X54987627Y-106712540D01*
X54956856Y-106638254D01*
X54956856Y-106638253D01*
X54913339Y-106533193D01*
X54913339Y-106533192D01*
X54805488Y-106371781D01*
X54668218Y-106234511D01*
X54635759Y-106212823D01*
X54506809Y-106126660D01*
X54429552Y-106094660D01*
X54390882Y-106064987D01*
X54188736Y-106024777D01*
X54137066Y-106014500D01*
X54137065Y-106014500D01*
X53942929Y-106014500D01*
X53752541Y-106052371D01*
X53752539Y-106052372D01*
X53573200Y-106126656D01*
X53573194Y-106126658D01*
X53573192Y-106126660D01*
X53573189Y-106126661D01*
X53573187Y-106126663D01*
X53411782Y-106234510D01*
X53411777Y-106234514D01*
X53274514Y-106371777D01*
X53274510Y-106371782D01*
X53166663Y-106533187D01*
X53166656Y-106533200D01*
X53092372Y-106712539D01*
X53092371Y-106712541D01*
X53054500Y-106902929D01*
X50500000Y-106902929D01*
X50500000Y-103432760D01*
X54489500Y-103432760D01*
X54489500Y-103436288D01*
X54489500Y-104567235D01*
X54500116Y-104671151D01*
X54500120Y-104671169D01*
X54555908Y-104839531D01*
X54555913Y-104839544D01*
X54556165Y-104840023D01*
X54557285Y-104841769D01*
X54642811Y-104980428D01*
X54649040Y-104990526D01*
X54774474Y-105115960D01*
X54925454Y-105209085D01*
X54925456Y-105209086D01*
X54925461Y-105209088D01*
X55010762Y-105237353D01*
X55093840Y-105264882D01*
X55197769Y-105275500D01*
X56802230Y-105275499D01*
X56906160Y-105264882D01*
X57031159Y-105223461D01*
X57071482Y-105210100D01*
X57077687Y-105208194D01*
X57080170Y-105207489D01*
X57086485Y-105204309D01*
X57091200Y-105202422D01*
X57101766Y-105192295D01*
X57225526Y-105115960D01*
X57350960Y-104990526D01*
X57444085Y-104839546D01*
X57499882Y-104671160D01*
X57510500Y-104567231D01*
X57510499Y-103432770D01*
X57499882Y-103328840D01*
X57472105Y-103245015D01*
X57472105Y-103245013D01*
X57444095Y-103160483D01*
X57444088Y-103160461D01*
X57444086Y-103160456D01*
X57444085Y-103160454D01*
X57350960Y-103009474D01*
X57225526Y-102884040D01*
X57215428Y-102877811D01*
X57076769Y-102792285D01*
X57075023Y-102791165D01*
X57074545Y-102790914D01*
X57074544Y-102790913D01*
X57074543Y-102790913D01*
X57074538Y-102790911D01*
X56906157Y-102735117D01*
X56906155Y-102735116D01*
X56906150Y-102735115D01*
X56802245Y-102724500D01*
X56802235Y-102724500D01*
X55197774Y-102724500D01*
X55197763Y-102724500D01*
X55093847Y-102735116D01*
X55093829Y-102735120D01*
X54925467Y-102790908D01*
X54925456Y-102790912D01*
X54774478Y-102884036D01*
X54649036Y-103009478D01*
X54555913Y-103160455D01*
X54555913Y-103160456D01*
X54555911Y-103160461D01*
X54500117Y-103328841D01*
X54500117Y-103328842D01*
X54500117Y-103328843D01*
X54499551Y-103332349D01*
X54499378Y-103335748D01*
X54499398Y-103335869D01*
X54499368Y-103336166D01*
X54489500Y-103432760D01*
X50500000Y-103432760D01*
X50500000Y-100749998D01*
X54513702Y-100749998D01*
X54513703Y-100749999D01*
X54513703Y-100750000D01*
X55344816Y-100750000D01*
X55419316Y-100769962D01*
X55473854Y-100824500D01*
X55493816Y-100899000D01*
X55490643Y-100923089D01*
X55491275Y-100923173D01*
X55490000Y-100932858D01*
X55490000Y-101067141D01*
X55491275Y-101076827D01*
X55488737Y-101077161D01*
X55488742Y-101139553D01*
X55450183Y-101206351D01*
X55383392Y-101244920D01*
X55344816Y-101250000D01*
X54513702Y-101250000D01*
X54521391Y-101298555D01*
X54521392Y-101298561D01*
X54583406Y-101489414D01*
X54583413Y-101489434D01*
X54583415Y-101489438D01*
X54667866Y-101655184D01*
X54674520Y-101668242D01*
X54674523Y-101668247D01*
X54792481Y-101830603D01*
X54934396Y-101972518D01*
X55096752Y-102090476D01*
X55096757Y-102090479D01*
X55275559Y-102181583D01*
X55275576Y-102181590D01*
X55466437Y-102243605D01*
X55664660Y-102275000D01*
X55750000Y-102275000D01*
X55750000Y-101655184D01*
X55769962Y-101580684D01*
X55824500Y-101526146D01*
X55899000Y-101506184D01*
X55923089Y-101509356D01*
X55923173Y-101508725D01*
X55932855Y-101509999D01*
X55932857Y-101510000D01*
X56067141Y-101510000D01*
X56067143Y-101510000D01*
X56067144Y-101509999D01*
X56076827Y-101508725D01*
X56077161Y-101511262D01*
X56139553Y-101511258D01*
X56206351Y-101549817D01*
X56244920Y-101616608D01*
X56250000Y-101655184D01*
X56250000Y-102275000D01*
X56335335Y-102275000D01*
X56335340Y-102275000D01*
X56533562Y-102243605D01*
X56724423Y-102181590D01*
X56724440Y-102181583D01*
X56903242Y-102090479D01*
X56903247Y-102090476D01*
X57065603Y-101972518D01*
X57207518Y-101830603D01*
X57325476Y-101668247D01*
X57325479Y-101668242D01*
X57416583Y-101489440D01*
X57416589Y-101489426D01*
X57478604Y-101298569D01*
X57478606Y-101298562D01*
X57486297Y-101250000D01*
X56655184Y-101250000D01*
X56580684Y-101230038D01*
X56526146Y-101175500D01*
X56506184Y-101101000D01*
X56509356Y-101076910D01*
X56508725Y-101076827D01*
X56510000Y-101067141D01*
X56510000Y-100932858D01*
X56508725Y-100923173D01*
X56511262Y-100922838D01*
X56511258Y-100860447D01*
X56549817Y-100793649D01*
X56616608Y-100755080D01*
X56655184Y-100750000D01*
X57486295Y-100750000D01*
X57486296Y-100750000D01*
X57486296Y-100749998D01*
X57478608Y-100701446D01*
X57478605Y-100701435D01*
X57478604Y-100701430D01*
X57416589Y-100510573D01*
X57416583Y-100510559D01*
X57325479Y-100331757D01*
X57325476Y-100331752D01*
X57207518Y-100169396D01*
X57065603Y-100027481D01*
X56903247Y-99909523D01*
X56903242Y-99909520D01*
X56724447Y-99818419D01*
X56724440Y-99818416D01*
X56724423Y-99818409D01*
X56724419Y-99818408D01*
X56724415Y-99818406D01*
X56533565Y-99756395D01*
X56533562Y-99756394D01*
X56533559Y-99756393D01*
X56533557Y-99756393D01*
X56484542Y-99748630D01*
X56335340Y-99725000D01*
X56335336Y-99725000D01*
X56250000Y-99725000D01*
X56250000Y-100344815D01*
X56230038Y-100419315D01*
X56175500Y-100473853D01*
X56101000Y-100493815D01*
X56076909Y-100490644D01*
X56076827Y-100491275D01*
X56067144Y-100490000D01*
X56067143Y-100490000D01*
X56067141Y-100490000D01*
X55932859Y-100490000D01*
X55932857Y-100490000D01*
X55932855Y-100490000D01*
X55923173Y-100491275D01*
X55922839Y-100488740D01*
X55860419Y-100488733D01*
X55793629Y-100450162D01*
X55755073Y-100383362D01*
X55750000Y-100344815D01*
X55750000Y-99725000D01*
X55664660Y-99725000D01*
X55556256Y-99742168D01*
X55466440Y-99756393D01*
X55466433Y-99756395D01*
X55275583Y-99818406D01*
X55275551Y-99818419D01*
X55096754Y-99909521D01*
X54934397Y-100027480D01*
X54934394Y-100027482D01*
X54792482Y-100169394D01*
X54792480Y-100169397D01*
X54674520Y-100331756D01*
X54674517Y-100331761D01*
X54583415Y-100510560D01*
X54583413Y-100510564D01*
X54583406Y-100510584D01*
X54521393Y-100701435D01*
X54521390Y-100701446D01*
X54513702Y-100749998D01*
X50500000Y-100749998D01*
X50500000Y-97902929D01*
X53054500Y-97902929D01*
X53054500Y-98097069D01*
X53092371Y-98287457D01*
X53092372Y-98287459D01*
X53141632Y-98406383D01*
X53166660Y-98466807D01*
X53274511Y-98628218D01*
X53411781Y-98765488D01*
X53573192Y-98873339D01*
X53573197Y-98873341D01*
X53647480Y-98904110D01*
X53647479Y-98904110D01*
X53721766Y-98934880D01*
X53752540Y-98947627D01*
X53942937Y-98985500D01*
X53942941Y-98985500D01*
X54137059Y-98985500D01*
X54137063Y-98985500D01*
X54327460Y-98947627D01*
X54506809Y-98873338D01*
X54668219Y-98765488D01*
X54805488Y-98628219D01*
X54913338Y-98466809D01*
X54987627Y-98287460D01*
X55025500Y-98097063D01*
X55025500Y-97902937D01*
X54987627Y-97712540D01*
X54956856Y-97638254D01*
X54956856Y-97638253D01*
X54914074Y-97534967D01*
X54913339Y-97533192D01*
X54805488Y-97371781D01*
X54668218Y-97234511D01*
X54635759Y-97212823D01*
X54506809Y-97126660D01*
X54429552Y-97094660D01*
X54390882Y-97064987D01*
X54188736Y-97024777D01*
X54137066Y-97014500D01*
X54137065Y-97014500D01*
X53942929Y-97014500D01*
X53752541Y-97052371D01*
X53752539Y-97052372D01*
X53573200Y-97126656D01*
X53573194Y-97126658D01*
X53573192Y-97126660D01*
X53573189Y-97126661D01*
X53573187Y-97126663D01*
X53411782Y-97234510D01*
X53411777Y-97234514D01*
X53274514Y-97371777D01*
X53274510Y-97371782D01*
X53166663Y-97533187D01*
X53166656Y-97533200D01*
X53092372Y-97712539D01*
X53092371Y-97712541D01*
X53054500Y-97902929D01*
X50500000Y-97902929D01*
X50500000Y-82368876D01*
X79849500Y-82368876D01*
X79849500Y-82373582D01*
X79849500Y-82631126D01*
X79882453Y-82881422D01*
X79882454Y-82881430D01*
X79883728Y-82891115D01*
X79950336Y-83139701D01*
X79951223Y-83143505D01*
X79951600Y-83144415D01*
X79951600Y-83144416D01*
X80051959Y-83386701D01*
X80051961Y-83386705D01*
X80175740Y-83601096D01*
X80179222Y-83608782D01*
X80342712Y-83821845D01*
X80342715Y-83821848D01*
X80528151Y-84007284D01*
X80736193Y-84166921D01*
X80736197Y-84166924D01*
X80963303Y-84298043D01*
X81167809Y-84382752D01*
X81205583Y-84398399D01*
X81293330Y-84421909D01*
X81293331Y-84421910D01*
X81293332Y-84421910D01*
X81444724Y-84462475D01*
X81452609Y-84465443D01*
X81458883Y-84466269D01*
X81458884Y-84466270D01*
X81458886Y-84466270D01*
X81458890Y-84466270D01*
X81458891Y-84466271D01*
X81495834Y-84471134D01*
X81699427Y-84497938D01*
X81708987Y-84500500D01*
X81981122Y-84500500D01*
X82007296Y-84500500D01*
X82012145Y-84497700D01*
X82031257Y-84493898D01*
X82216248Y-84469543D01*
X82231424Y-84467546D01*
X82241237Y-84466902D01*
X82250536Y-84463746D01*
X82475467Y-84403476D01*
X82485278Y-84402184D01*
X82494418Y-84398398D01*
X82494419Y-84398398D01*
X82736697Y-84298043D01*
X82963803Y-84166924D01*
X83156285Y-84019225D01*
X83164854Y-84014278D01*
X83171848Y-84007284D01*
X83171849Y-84007284D01*
X83357284Y-83821849D01*
X83357284Y-83821848D01*
X83364278Y-83814854D01*
X83369225Y-83806285D01*
X83516921Y-83613807D01*
X83516921Y-83613806D01*
X83516924Y-83613803D01*
X83516925Y-83613800D01*
X83520775Y-83608783D01*
X83524253Y-83601108D01*
X83648043Y-83386697D01*
X83748398Y-83144419D01*
X83816270Y-82891116D01*
X83850500Y-82631120D01*
X83850500Y-82368880D01*
X83816270Y-82108884D01*
X83749662Y-81860297D01*
X83748399Y-81855584D01*
X83748399Y-81855583D01*
X83732752Y-81817809D01*
X83648043Y-81613303D01*
X83524253Y-81398891D01*
X83520775Y-81391215D01*
X83357286Y-81178153D01*
X83171848Y-80992715D01*
X82963810Y-80833080D01*
X82963806Y-80833078D01*
X82951096Y-80825740D01*
X82736701Y-80701959D01*
X82736699Y-80701958D01*
X82736697Y-80701957D01*
X82736695Y-80701956D01*
X82736693Y-80701955D01*
X82736688Y-80701952D01*
X82736683Y-80701950D01*
X82661155Y-80670666D01*
X82661154Y-80670666D01*
X82495988Y-80602251D01*
X82494414Y-80601599D01*
X82494411Y-80601598D01*
X82268256Y-80541002D01*
X82268253Y-80541000D01*
X82268253Y-80541001D01*
X82244900Y-80534743D01*
X82241947Y-80533868D01*
X82241114Y-80533729D01*
X82241108Y-80533728D01*
X82241098Y-80533726D01*
X82241094Y-80533726D01*
X81981126Y-80499500D01*
X81981123Y-80499500D01*
X81981120Y-80499500D01*
X81718880Y-80499500D01*
X81718876Y-80499500D01*
X81718872Y-80499500D01*
X81468576Y-80532453D01*
X81468568Y-80532453D01*
X81468569Y-80532454D01*
X81458883Y-80533728D01*
X81210297Y-80600336D01*
X81206493Y-80601223D01*
X80963293Y-80701961D01*
X80748902Y-80825740D01*
X80741217Y-80829221D01*
X80517199Y-81001118D01*
X80510755Y-81010111D01*
X80360111Y-81160755D01*
X80351118Y-81167199D01*
X80179221Y-81391217D01*
X80175740Y-81398902D01*
X80051961Y-81613293D01*
X79951223Y-81856493D01*
X79950336Y-81860297D01*
X79883728Y-82108883D01*
X79882473Y-82118422D01*
X79849500Y-82368876D01*
X50500000Y-82368876D01*
X50500000Y-74124003D01*
X92494500Y-74124003D01*
X92494500Y-97375994D01*
X92494501Y-97376015D01*
X92506051Y-97483452D01*
X92506052Y-97483456D01*
X92517258Y-97534963D01*
X92551387Y-97637505D01*
X92629175Y-97758543D01*
X92674929Y-97811346D01*
X92674931Y-97811348D01*
X92783665Y-97905568D01*
X92844270Y-97933245D01*
X92914541Y-97965338D01*
X92952657Y-97976530D01*
X92981576Y-97985022D01*
X92981578Y-97985022D01*
X92981580Y-97985023D01*
X92981584Y-97985024D01*
X92981585Y-97985024D01*
X92981589Y-97985025D01*
X92981593Y-97985026D01*
X93123985Y-98005498D01*
X93123989Y-98005498D01*
X93124000Y-98005500D01*
X109875994Y-98005500D01*
X109876000Y-98005500D01*
X109919483Y-98000824D01*
X109983452Y-97993948D01*
X109983456Y-97993947D01*
X110034967Y-97982741D01*
X110137504Y-97948613D01*
X110258543Y-97870825D01*
X110311347Y-97825070D01*
X110405567Y-97716336D01*
X110465338Y-97585459D01*
X110485023Y-97518420D01*
X110485024Y-97518416D01*
X110485025Y-97518410D01*
X110485026Y-97518406D01*
X110505498Y-97376014D01*
X110505500Y-97375996D01*
X110505500Y-88906382D01*
X128049500Y-88906382D01*
X128049500Y-89093616D01*
X128086025Y-89277245D01*
X128086027Y-89277251D01*
X128157672Y-89450220D01*
X128157677Y-89450231D01*
X128157682Y-89450238D01*
X128227023Y-89554014D01*
X128261695Y-89605904D01*
X128261701Y-89605911D01*
X128316987Y-89661197D01*
X128340664Y-89692054D01*
X128354536Y-89716080D01*
X128374500Y-89790579D01*
X128374500Y-111699955D01*
X128369423Y-111738519D01*
X128362243Y-111765315D01*
X128323679Y-111832110D01*
X128261700Y-111894088D01*
X128157677Y-112049769D01*
X128157672Y-112049778D01*
X128086027Y-112222747D01*
X128086025Y-112222753D01*
X128049500Y-112406382D01*
X128049500Y-112593616D01*
X128086025Y-112777245D01*
X128086027Y-112777251D01*
X128157672Y-112950220D01*
X128157677Y-112950231D01*
X128157680Y-112950235D01*
X128227024Y-113054015D01*
X128261698Y-113105908D01*
X128394092Y-113238302D01*
X128497174Y-113307179D01*
X128549764Y-113342319D01*
X128549773Y-113342324D01*
X128600436Y-113363309D01*
X128722749Y-113413973D01*
X128906384Y-113450500D01*
X129093616Y-113450500D01*
X129277251Y-113413973D01*
X129450231Y-113342322D01*
X129605908Y-113238302D01*
X129738302Y-113105908D01*
X129842322Y-112950231D01*
X129913973Y-112777251D01*
X129950500Y-112593616D01*
X129950500Y-112406384D01*
X129913973Y-112222749D01*
X129842322Y-112049769D01*
X129738302Y-111894092D01*
X129683012Y-111838802D01*
X129659332Y-111807941D01*
X129645461Y-111783915D01*
X129625500Y-111709417D01*
X129625500Y-99595801D01*
X129630576Y-99557241D01*
X129634721Y-99541770D01*
X129673283Y-99474974D01*
X129740066Y-99436411D01*
X129747185Y-99434503D01*
X129814820Y-99432287D01*
X129906384Y-99450500D01*
X129906385Y-99450500D01*
X130093616Y-99450500D01*
X130277251Y-99413973D01*
X130450231Y-99342322D01*
X130605908Y-99238302D01*
X130738302Y-99105908D01*
X130842322Y-98950231D01*
X130913973Y-98777251D01*
X130950500Y-98593616D01*
X130950500Y-98406384D01*
X130913973Y-98222749D01*
X130842322Y-98049769D01*
X130738302Y-97894092D01*
X130683012Y-97838802D01*
X130659332Y-97807941D01*
X130645461Y-97783915D01*
X130625500Y-97709417D01*
X130625500Y-96800044D01*
X130630576Y-96761485D01*
X130632941Y-96752654D01*
X130637756Y-96734687D01*
X130676317Y-96667893D01*
X130738302Y-96605908D01*
X130842322Y-96450231D01*
X130913973Y-96277251D01*
X130950500Y-96093616D01*
X130950500Y-95906384D01*
X130913973Y-95722749D01*
X130852679Y-95574773D01*
X130852677Y-95574769D01*
X130842324Y-95549773D01*
X130842323Y-95549771D01*
X130842322Y-95549770D01*
X130842319Y-95549764D01*
X130755006Y-95419092D01*
X130738302Y-95394092D01*
X130605908Y-95261698D01*
X130504157Y-95193710D01*
X130504156Y-95193709D01*
X130450243Y-95157685D01*
X130450230Y-95157677D01*
X130450223Y-95157673D01*
X130313073Y-95100865D01*
X130313070Y-95100863D01*
X130302057Y-95096302D01*
X130282136Y-95088050D01*
X130278185Y-95086247D01*
X130266743Y-95083546D01*
X130262854Y-95083163D01*
X130251532Y-95080911D01*
X130093616Y-95049500D01*
X129906381Y-95049500D01*
X129822806Y-95066123D01*
X129784000Y-95068667D01*
X129768017Y-95067620D01*
X129694982Y-95042831D01*
X129644125Y-94984845D01*
X129644121Y-94984836D01*
X129640864Y-94978231D01*
X129625500Y-94912334D01*
X129625500Y-94381382D01*
X133549500Y-94381382D01*
X133549500Y-94568616D01*
X133586025Y-94752245D01*
X133586027Y-94752251D01*
X133657672Y-94925220D01*
X133657677Y-94925231D01*
X133657682Y-94925238D01*
X133722374Y-95022056D01*
X133761695Y-95080904D01*
X133761699Y-95080909D01*
X133811559Y-95130769D01*
X133835238Y-95161628D01*
X133843247Y-95175500D01*
X133863209Y-95250000D01*
X133843247Y-95324500D01*
X133843246Y-95324501D01*
X133835238Y-95338371D01*
X133811560Y-95369229D01*
X133761700Y-95419088D01*
X133657677Y-95574769D01*
X133657675Y-95574773D01*
X133586027Y-95747747D01*
X133586025Y-95747753D01*
X133549500Y-95931382D01*
X133549500Y-96118616D01*
X133586025Y-96302245D01*
X133586027Y-96302251D01*
X133657672Y-96475220D01*
X133657677Y-96475231D01*
X133657680Y-96475235D01*
X133727024Y-96579015D01*
X133761698Y-96630908D01*
X133894092Y-96763302D01*
X133997174Y-96832179D01*
X134049764Y-96867319D01*
X134049773Y-96867324D01*
X134100436Y-96888309D01*
X134222749Y-96938973D01*
X134406384Y-96975500D01*
X134593616Y-96975500D01*
X134777251Y-96938973D01*
X134950231Y-96867322D01*
X135105908Y-96763302D01*
X135238302Y-96630908D01*
X135342322Y-96475231D01*
X135413973Y-96302251D01*
X135450500Y-96118616D01*
X135450500Y-95931384D01*
X135413973Y-95747749D01*
X135342322Y-95574769D01*
X135238302Y-95419092D01*
X135188439Y-95369229D01*
X135164764Y-95338375D01*
X135156755Y-95324504D01*
X135136790Y-95250005D01*
X135156750Y-95175504D01*
X135164763Y-95161624D01*
X135188448Y-95130761D01*
X135192901Y-95126309D01*
X135238302Y-95080908D01*
X135342322Y-94925231D01*
X135413973Y-94752251D01*
X135450500Y-94568616D01*
X135450500Y-94381384D01*
X135413973Y-94197749D01*
X135342322Y-94024769D01*
X135238302Y-93869092D01*
X135105908Y-93736698D01*
X134985710Y-93656384D01*
X134985709Y-93656383D01*
X134950243Y-93632685D01*
X134950230Y-93632677D01*
X134950223Y-93632673D01*
X134813073Y-93575865D01*
X134813070Y-93575863D01*
X134802057Y-93571302D01*
X134782136Y-93563050D01*
X134778185Y-93561247D01*
X134766743Y-93558546D01*
X134762854Y-93558163D01*
X134593616Y-93524500D01*
X134406384Y-93524500D01*
X134222753Y-93561025D01*
X134222747Y-93561027D01*
X134049778Y-93632672D01*
X134049773Y-93632675D01*
X134049764Y-93632680D01*
X134014289Y-93656384D01*
X133894091Y-93736698D01*
X133761698Y-93869091D01*
X133657677Y-94024769D01*
X133657672Y-94024778D01*
X133586027Y-94197747D01*
X133586025Y-94197753D01*
X133549500Y-94381382D01*
X129625500Y-94381382D01*
X129625500Y-89800044D01*
X129630576Y-89761485D01*
X129635833Y-89741864D01*
X129637756Y-89734687D01*
X129676317Y-89667893D01*
X129738302Y-89605908D01*
X129842322Y-89450231D01*
X129913973Y-89277251D01*
X129950500Y-89093616D01*
X129950500Y-88906384D01*
X129913973Y-88722749D01*
X129842322Y-88549769D01*
X129738302Y-88394092D01*
X129605908Y-88261698D01*
X129554015Y-88227024D01*
X129450235Y-88157680D01*
X129450226Y-88157675D01*
X129450227Y-88157675D01*
X129450223Y-88157673D01*
X129313073Y-88100865D01*
X129313070Y-88100863D01*
X129302057Y-88096302D01*
X129282136Y-88088050D01*
X129278185Y-88086247D01*
X129266743Y-88083546D01*
X129262854Y-88083163D01*
X129093616Y-88049500D01*
X128906384Y-88049500D01*
X128722753Y-88086025D01*
X128722747Y-88086027D01*
X128549778Y-88157672D01*
X128549773Y-88157675D01*
X128549764Y-88157680D01*
X128471406Y-88210037D01*
X128394091Y-88261698D01*
X128261698Y-88394091D01*
X128157677Y-88549769D01*
X128157672Y-88549778D01*
X128086027Y-88722747D01*
X128086025Y-88722753D01*
X128049500Y-88906382D01*
X110505500Y-88906382D01*
X110505500Y-78681382D01*
X129049500Y-78681382D01*
X129049500Y-78868616D01*
X129086025Y-79052245D01*
X129086027Y-79052251D01*
X129157672Y-79225220D01*
X129157677Y-79225231D01*
X129157680Y-79225235D01*
X129227024Y-79329015D01*
X129261698Y-79380908D01*
X129394092Y-79513302D01*
X129440891Y-79544572D01*
X129549764Y-79617319D01*
X129549767Y-79617321D01*
X129549769Y-79617322D01*
X129583159Y-79631152D01*
X129616843Y-79650600D01*
X129629554Y-79660353D01*
X129676504Y-79721545D01*
X129686568Y-79798009D01*
X129685607Y-79805308D01*
X129661775Y-79868632D01*
X129657685Y-79874752D01*
X129657673Y-79874776D01*
X129586027Y-80047747D01*
X129586025Y-80047753D01*
X129549500Y-80231382D01*
X129549500Y-80418616D01*
X129586025Y-80602245D01*
X129586027Y-80602251D01*
X129657672Y-80775220D01*
X129657677Y-80775231D01*
X129657680Y-80775235D01*
X129696330Y-80833078D01*
X129761698Y-80930908D01*
X129894092Y-81063302D01*
X129997174Y-81132179D01*
X129997175Y-81132180D01*
X130049755Y-81167313D01*
X130049767Y-81167321D01*
X130049770Y-81167322D01*
X130049773Y-81167324D01*
X130075909Y-81178149D01*
X130075911Y-81178151D01*
X130075912Y-81178151D01*
X130222749Y-81238973D01*
X130406384Y-81275500D01*
X130593616Y-81275500D01*
X130777251Y-81238973D01*
X130950231Y-81167322D01*
X131105908Y-81063302D01*
X131238302Y-80930908D01*
X131342322Y-80775231D01*
X131413973Y-80602251D01*
X131450500Y-80418616D01*
X131450500Y-80231384D01*
X131413973Y-80047749D01*
X131342322Y-79874769D01*
X131342321Y-79874768D01*
X131342269Y-79874674D01*
X131341628Y-79873730D01*
X131307179Y-79822173D01*
X131307179Y-79822174D01*
X131238302Y-79719092D01*
X131183012Y-79663802D01*
X131159332Y-79632941D01*
X131145461Y-79608915D01*
X131125500Y-79534417D01*
X131125500Y-79213396D01*
X131125499Y-79213390D01*
X131120692Y-79189224D01*
X131101463Y-79092548D01*
X131081932Y-79045397D01*
X131054312Y-78978715D01*
X131037256Y-78953190D01*
X130990501Y-78883216D01*
X130978670Y-78861926D01*
X130963777Y-78829051D01*
X130950500Y-78767566D01*
X130950500Y-78681383D01*
X130913973Y-78497751D01*
X130913972Y-78497747D01*
X130913971Y-78497745D01*
X130842324Y-78324773D01*
X130842319Y-78324764D01*
X130807179Y-78272174D01*
X130738302Y-78169092D01*
X130605908Y-78036698D01*
X130554015Y-78002024D01*
X130450235Y-77932680D01*
X130450226Y-77932675D01*
X130450227Y-77932675D01*
X130450223Y-77932673D01*
X130313073Y-77875865D01*
X130313070Y-77875863D01*
X130302057Y-77871302D01*
X130282136Y-77863050D01*
X130278185Y-77861247D01*
X130266743Y-77858546D01*
X130262854Y-77858163D01*
X130093616Y-77824500D01*
X129906384Y-77824500D01*
X129722753Y-77861025D01*
X129722747Y-77861027D01*
X129549778Y-77932672D01*
X129549773Y-77932675D01*
X129549764Y-77932680D01*
X129471406Y-77985037D01*
X129394091Y-78036698D01*
X129261698Y-78169091D01*
X129157677Y-78324769D01*
X129157672Y-78324778D01*
X129086027Y-78497747D01*
X129086026Y-78497751D01*
X129049500Y-78681382D01*
X110505500Y-78681382D01*
X110505500Y-74124005D01*
X110505498Y-74123984D01*
X110493948Y-74016547D01*
X110493947Y-74016543D01*
X110491145Y-74003666D01*
X110482741Y-73965033D01*
X110448613Y-73862496D01*
X110370825Y-73741457D01*
X110325070Y-73688653D01*
X110309280Y-73674970D01*
X110216334Y-73594431D01*
X110085461Y-73534663D01*
X110085459Y-73534662D01*
X110085454Y-73534660D01*
X110085447Y-73534658D01*
X110018423Y-73514977D01*
X110018410Y-73514974D01*
X110018406Y-73514973D01*
X109876014Y-73494501D01*
X109876002Y-73494500D01*
X109876000Y-73494500D01*
X109875996Y-73494500D01*
X93124006Y-73494500D01*
X93124000Y-73494500D01*
X93123995Y-73494500D01*
X93123984Y-73494501D01*
X93016547Y-73506051D01*
X93016543Y-73506052D01*
X92965036Y-73517258D01*
X92862494Y-73551387D01*
X92741456Y-73629175D01*
X92688653Y-73674929D01*
X92688651Y-73674931D01*
X92594431Y-73783665D01*
X92534663Y-73914538D01*
X92534658Y-73914552D01*
X92514977Y-73981576D01*
X92514974Y-73981589D01*
X92514973Y-73981593D01*
X92494501Y-74123985D01*
X92494500Y-74124003D01*
X50500000Y-74124003D01*
X50500000Y-71448309D01*
X127625001Y-71448309D01*
X127634742Y-71543675D01*
X127634856Y-71545823D01*
X127635144Y-71547606D01*
X127635144Y-71547609D01*
X127688453Y-71708485D01*
X127777427Y-71852732D01*
X127897267Y-71972572D01*
X128041514Y-72061546D01*
X128165048Y-72102480D01*
X128180603Y-72112630D01*
X128202396Y-72114856D01*
X128202396Y-72114857D01*
X128301679Y-72124999D01*
X128350000Y-72124999D01*
X128850000Y-72124999D01*
X128898306Y-72124999D01*
X128898310Y-72124999D01*
X128971066Y-72117566D01*
X128990060Y-72115626D01*
X128994106Y-72115419D01*
X128997594Y-72114856D01*
X128997606Y-72114855D01*
X128997609Y-72114855D01*
X129158485Y-72061546D01*
X129302732Y-71972572D01*
X129422572Y-71852732D01*
X129511546Y-71708485D01*
X129552481Y-71584948D01*
X129562631Y-71569393D01*
X129574982Y-71448494D01*
X129575000Y-71448313D01*
X129575000Y-71425000D01*
X128850000Y-71425000D01*
X128850000Y-72124999D01*
X128350000Y-72124999D01*
X128350000Y-71425000D01*
X127628470Y-71425000D01*
X127625001Y-71425000D01*
X127625001Y-71448309D01*
X50500000Y-71448309D01*
X50500000Y-58168616D01*
X50505076Y-58130056D01*
X50509221Y-58114585D01*
X50547783Y-58047789D01*
X50614575Y-58009223D01*
X50630056Y-58005076D01*
X50668616Y-58000000D01*
X56845500Y-58000000D01*
X56920000Y-58019962D01*
G37*
G04 #@! TD.AperFunction*
G04 #@! TA.AperFunction,Conductor*
G36*
X109943039Y-74019685D02*
G01*
X109988794Y-74072489D01*
X110000000Y-74124000D01*
X110000000Y-97376000D01*
X109980315Y-97443039D01*
X109927511Y-97488794D01*
X109876000Y-97500000D01*
X93124000Y-97500000D01*
X93056961Y-97480315D01*
X93011206Y-97427511D01*
X93000000Y-97376000D01*
X93000000Y-82368905D01*
X96150000Y-82368905D01*
X96150000Y-82631094D01*
X96184220Y-82891009D01*
X96184222Y-82891020D01*
X96252075Y-83144255D01*
X96352404Y-83386471D01*
X96352409Y-83386482D01*
X96483488Y-83613516D01*
X96483494Y-83613524D01*
X96570080Y-83726365D01*
X97377546Y-82918899D01*
X97470343Y-83057780D01*
X97592220Y-83179657D01*
X97731099Y-83272452D01*
X96923633Y-84079917D01*
X96923633Y-84079918D01*
X97036475Y-84166505D01*
X97036483Y-84166511D01*
X97263517Y-84297590D01*
X97263528Y-84297595D01*
X97505744Y-84397924D01*
X97758979Y-84465777D01*
X97758990Y-84465779D01*
X98018905Y-84499999D01*
X98018920Y-84500000D01*
X98281080Y-84500000D01*
X98281094Y-84499999D01*
X98541009Y-84465779D01*
X98541020Y-84465777D01*
X98794255Y-84397924D01*
X99036471Y-84297595D01*
X99036482Y-84297590D01*
X99263516Y-84166511D01*
X99263534Y-84166499D01*
X99376365Y-84079919D01*
X99376365Y-84079917D01*
X98568900Y-83272453D01*
X98707780Y-83179657D01*
X98829657Y-83057780D01*
X98922452Y-82918900D01*
X99729917Y-83726365D01*
X99729919Y-83726365D01*
X99816499Y-83613534D01*
X99816511Y-83613516D01*
X99947590Y-83386482D01*
X99947595Y-83386471D01*
X100047924Y-83144255D01*
X100115777Y-82891020D01*
X100115779Y-82891009D01*
X100149999Y-82631094D01*
X100150000Y-82631080D01*
X100150000Y-82368919D01*
X100149999Y-82368905D01*
X100115779Y-82108990D01*
X100115777Y-82108979D01*
X100047924Y-81855744D01*
X99947595Y-81613528D01*
X99947590Y-81613517D01*
X99816511Y-81386483D01*
X99816505Y-81386475D01*
X99729918Y-81273633D01*
X99729917Y-81273633D01*
X98922452Y-82081098D01*
X98829657Y-81942220D01*
X98707780Y-81820343D01*
X98568899Y-81727545D01*
X99376365Y-80920080D01*
X99263524Y-80833494D01*
X99263516Y-80833488D01*
X99036482Y-80702409D01*
X99036471Y-80702404D01*
X98794255Y-80602075D01*
X98541020Y-80534222D01*
X98541009Y-80534220D01*
X98281094Y-80500000D01*
X98018905Y-80500000D01*
X97758990Y-80534220D01*
X97758979Y-80534222D01*
X97505744Y-80602075D01*
X97263528Y-80702404D01*
X97263517Y-80702409D01*
X97036471Y-80833496D01*
X96923633Y-80920079D01*
X96923633Y-80920080D01*
X97731099Y-81727546D01*
X97592220Y-81820343D01*
X97470343Y-81942220D01*
X97377546Y-82081099D01*
X96570080Y-81273633D01*
X96570079Y-81273633D01*
X96483496Y-81386471D01*
X96352409Y-81613517D01*
X96352404Y-81613528D01*
X96252075Y-81855744D01*
X96184222Y-82108979D01*
X96184220Y-82108990D01*
X96150000Y-82368905D01*
X93000000Y-82368905D01*
X93000000Y-74124000D01*
X93019685Y-74056961D01*
X93072489Y-74011206D01*
X93124000Y-74000000D01*
X109876000Y-74000000D01*
X109943039Y-74019685D01*
G37*
G04 #@! TD.AperFunction*
M02*
