M48
; DRILL file KiCad 10.0.6 date 2026-10-06T18:58:30
; FORMAT={-:-/ absolute / metric / decimal}
; #@! TF.CreationDate,2026-10-06T18:58:30+02:00
; #@! TF.GenerationSoftware,Kicad,Pcbnew,10.0.6
; #@! TF.FileFunction,Plated,1,2,PTH
FMAT,2
METRIC
; #@! TA.AperFunction,Plated,PTH,ViaDrill
T1C0.300
; #@! TA.AperFunction,Plated,PTH,ViaDrill
T2C0.500
; #@! TA.AperFunction,Plated,PTH,ComponentDrill
T3C1.000
; #@! TA.AperFunction,Plated,PTH,ComponentDrill
T4C1.020
; #@! TA.AperFunction,Plated,PTH,ComponentDrill
T5C1.750
; #@! TA.AperFunction,Plated,PTH,ComponentDrill
T6C4.300
%
G90
G05
T1
X54.0Y-77.5
X67.0Y-89.0
X69.0Y-78.5
X69.0Y-80.0
X69.0Y-81.5
X71.5Y-91.0
X73.0Y-97.5
X90.5Y-103.5
X97.5Y-96.0
X98.0Y-92.25
X98.0Y-93.75
X99.0Y-107.0
X99.5Y-92.25
X99.5Y-93.75
X101.0Y-92.25
X101.0Y-93.75
X102.5Y-92.25
X102.5Y-93.75
X102.5Y-108.5
X103.5Y-96.0
X104.0Y-92.25
X104.0Y-93.75
X112.0Y-116.0
X113.5Y-67.0
X116.5Y-116.0
X120.5Y-116.0
X122.5Y-75.5
X123.5Y-107.5
X123.5Y-110.0
X124.5Y-69.0
X125.832Y-77.832
X126.653Y-79.225
X129.0Y-89.0
X129.0Y-112.5
X130.0Y-78.775
X130.0Y-96.0
X130.0Y-98.5
X130.5Y-80.325
X133.926Y-76.926
X134.5Y-73.5
X134.5Y-94.475
X134.5Y-96.025
X135.0Y-93.0
X135.325Y-84.0
X137.5Y-90.5
X143.0Y-94.5
T2
X54.5Y-82.5
X54.5Y-87.0
X59.0Y-80.0
X75.0Y-104.0
X76.5Y-104.0
X114.0Y-54.5
X114.0Y-57.0
X114.0Y-59.5
X114.0Y-62.0
X116.5Y-54.5
X116.5Y-57.0
X116.5Y-59.5
X116.5Y-62.0
X119.0Y-54.5
X119.0Y-57.0
X119.0Y-59.5
X119.0Y-62.0
X125.5Y-98.5
X132.0Y-53.5
X132.0Y-56.0
X132.0Y-58.5
X132.0Y-61.0
X132.0Y-63.5
T3
X62.0Y-110.5
T4
X56.0Y-101.0
X56.0Y-104.0
T5
X79.75Y-61.6
X81.85Y-82.5
X84.85Y-61.6
X95.15Y-61.6
X98.15Y-82.5
X100.25Y-61.6
T6
X64.0Y-62.0
X138.0Y-62.0
M30
