G04 #@! TF.GenerationSoftware,KiCad,Pcbnew,10.0.6*
G04 #@! TF.CreationDate,2026-10-06T18:57:38+02:00*
G04 #@! TF.ProjectId,recruitment,72656372-7569-4746-9d65-6e742e6b6963,A*
G04 #@! TF.SameCoordinates,Original*
G04 #@! TF.FileFunction,Copper,L1,Top*
G04 #@! TF.FilePolarity,Positive*
%FSLAX46Y46*%
G04 Gerber Fmt 4.6, Leading zero omitted, Abs format (unit mm)*
G04 Created by KiCad (PCBNEW 10.0.6) date 2026-10-06 18:57:38*
%MOMM*%
%LPD*%
G01*
G04 APERTURE LIST*
G04 Aperture macros list*
%AMRoundRect*
0 Rectangle with rounded corners*
0 $1 Rounding radius*
0 $2 $3 $4 $5 $6 $7 $8 $9 X,Y pos of 4 corners*
0 Add a 4 corners polygon primitive as box body*
4,1,4,$2,$3,$4,$5,$6,$7,$8,$9,$2,$3,0*
0 Add four circle primitives for the rounded corners*
1,1,$1+$1,$2,$3*
1,1,$1+$1,$4,$5*
1,1,$1+$1,$6,$7*
1,1,$1+$1,$8,$9*
0 Add four rect primitives between the rounded corners*
20,1,$1+$1,$2,$3,$4,$5,0*
20,1,$1+$1,$4,$5,$6,$7,0*
20,1,$1+$1,$6,$7,$8,$9,0*
20,1,$1+$1,$8,$9,$2,$3,0*%
G04 Aperture macros list end*
G04 #@! TA.AperFunction,SMDPad,CuDef*
%ADD10RoundRect,0.150000X-0.587500X-0.150000X0.587500X-0.150000X0.587500X0.150000X-0.587500X0.150000X0*%
G04 #@! TD*
G04 #@! TA.AperFunction,SMDPad,CuDef*
%ADD11RoundRect,0.200000X-0.275000X0.200000X-0.275000X-0.200000X0.275000X-0.200000X0.275000X0.200000X0*%
G04 #@! TD*
G04 #@! TA.AperFunction,SMDPad,CuDef*
%ADD12RoundRect,0.125000X-0.687500X-0.125000X0.687500X-0.125000X0.687500X0.125000X-0.687500X0.125000X0*%
G04 #@! TD*
G04 #@! TA.AperFunction,SMDPad,CuDef*
%ADD13RoundRect,0.225000X-0.225000X-0.375000X0.225000X-0.375000X0.225000X0.375000X-0.225000X0.375000X0*%
G04 #@! TD*
G04 #@! TA.AperFunction,SMDPad,CuDef*
%ADD14RoundRect,0.375000X0.375000X-0.625000X0.375000X0.625000X-0.375000X0.625000X-0.375000X-0.625000X0*%
G04 #@! TD*
G04 #@! TA.AperFunction,SMDPad,CuDef*
%ADD15RoundRect,0.500000X1.400000X-0.500000X1.400000X0.500000X-1.400000X0.500000X-1.400000X-0.500000X0*%
G04 #@! TD*
G04 #@! TA.AperFunction,SMDPad,CuDef*
%ADD16RoundRect,0.225000X-0.225000X-0.250000X0.225000X-0.250000X0.225000X0.250000X-0.225000X0.250000X0*%
G04 #@! TD*
G04 #@! TA.AperFunction,SMDPad,CuDef*
%ADD17C,1.500000*%
G04 #@! TD*
G04 #@! TA.AperFunction,SMDPad,CuDef*
%ADD18RoundRect,0.218750X0.256250X-0.218750X0.256250X0.218750X-0.256250X0.218750X-0.256250X-0.218750X0*%
G04 #@! TD*
G04 #@! TA.AperFunction,SMDPad,CuDef*
%ADD19RoundRect,0.150000X-0.150000X0.587500X-0.150000X-0.587500X0.150000X-0.587500X0.150000X0.587500X0*%
G04 #@! TD*
G04 #@! TA.AperFunction,SMDPad,CuDef*
%ADD20RoundRect,0.250000X1.000000X0.650000X-1.000000X0.650000X-1.000000X-0.650000X1.000000X-0.650000X0*%
G04 #@! TD*
G04 #@! TA.AperFunction,ComponentPad*
%ADD21C,8.600000*%
G04 #@! TD*
G04 #@! TA.AperFunction,SMDPad,CuDef*
%ADD22RoundRect,0.200000X-0.200000X-0.275000X0.200000X-0.275000X0.200000X0.275000X-0.200000X0.275000X0*%
G04 #@! TD*
G04 #@! TA.AperFunction,ComponentPad*
%ADD23C,3.500000*%
G04 #@! TD*
G04 #@! TA.AperFunction,ComponentPad*
%ADD24C,3.000000*%
G04 #@! TD*
G04 #@! TA.AperFunction,SMDPad,CuDef*
%ADD25RoundRect,0.200000X0.200000X0.275000X-0.200000X0.275000X-0.200000X-0.275000X0.200000X-0.275000X0*%
G04 #@! TD*
G04 #@! TA.AperFunction,SMDPad,CuDef*
%ADD26RoundRect,0.250000X-0.525000X-0.400000X0.525000X-0.400000X0.525000X0.400000X-0.525000X0.400000X0*%
G04 #@! TD*
G04 #@! TA.AperFunction,ComponentPad*
%ADD27C,2.000000*%
G04 #@! TD*
G04 #@! TA.AperFunction,SMDPad,CuDef*
%ADD28RoundRect,0.250000X-1.000000X-0.900000X1.000000X-0.900000X1.000000X0.900000X-1.000000X0.900000X0*%
G04 #@! TD*
G04 #@! TA.AperFunction,SMDPad,CuDef*
%ADD29RoundRect,0.250000X-0.312500X-1.450000X0.312500X-1.450000X0.312500X1.450000X-0.312500X1.450000X0*%
G04 #@! TD*
G04 #@! TA.AperFunction,SMDPad,CuDef*
%ADD30RoundRect,0.250000X-0.450000X0.262500X-0.450000X-0.262500X0.450000X-0.262500X0.450000X0.262500X0*%
G04 #@! TD*
G04 #@! TA.AperFunction,SMDPad,CuDef*
%ADD31RoundRect,0.225000X-0.250000X0.225000X-0.250000X-0.225000X0.250000X-0.225000X0.250000X0.225000X0*%
G04 #@! TD*
G04 #@! TA.AperFunction,SMDPad,CuDef*
%ADD32RoundRect,0.250000X0.250000X0.475000X-0.250000X0.475000X-0.250000X-0.475000X0.250000X-0.475000X0*%
G04 #@! TD*
G04 #@! TA.AperFunction,SMDPad,CuDef*
%ADD33RoundRect,0.150000X-0.825000X-0.150000X0.825000X-0.150000X0.825000X0.150000X-0.825000X0.150000X0*%
G04 #@! TD*
G04 #@! TA.AperFunction,SMDPad,CuDef*
%ADD34RoundRect,0.150000X0.150000X-0.587500X0.150000X0.587500X-0.150000X0.587500X-0.150000X-0.587500X0*%
G04 #@! TD*
G04 #@! TA.AperFunction,SMDPad,CuDef*
%ADD35RoundRect,0.250000X-0.325000X-1.100000X0.325000X-1.100000X0.325000X1.100000X-0.325000X1.100000X0*%
G04 #@! TD*
G04 #@! TA.AperFunction,SMDPad,CuDef*
%ADD36RoundRect,0.375000X-0.625000X-0.375000X0.625000X-0.375000X0.625000X0.375000X-0.625000X0.375000X0*%
G04 #@! TD*
G04 #@! TA.AperFunction,SMDPad,CuDef*
%ADD37RoundRect,0.500000X-0.500000X-1.400000X0.500000X-1.400000X0.500000X1.400000X-0.500000X1.400000X0*%
G04 #@! TD*
G04 #@! TA.AperFunction,SMDPad,CuDef*
%ADD38RoundRect,0.200000X0.275000X-0.200000X0.275000X0.200000X-0.275000X0.200000X-0.275000X-0.200000X0*%
G04 #@! TD*
G04 #@! TA.AperFunction,SMDPad,CuDef*
%ADD39RoundRect,0.225000X0.225000X0.250000X-0.225000X0.250000X-0.225000X-0.250000X0.225000X-0.250000X0*%
G04 #@! TD*
G04 #@! TA.AperFunction,ComponentPad*
%ADD40RoundRect,0.258334X0.751666X-0.516666X0.751666X0.516666X-0.751666X0.516666X-0.751666X-0.516666X0*%
G04 #@! TD*
G04 #@! TA.AperFunction,ComponentPad*
%ADD41O,2.020000X1.550000*%
G04 #@! TD*
G04 #@! TA.AperFunction,ViaPad*
%ADD42C,0.900000*%
G04 #@! TD*
G04 #@! TA.AperFunction,ViaPad*
%ADD43C,1.100000*%
G04 #@! TD*
G04 #@! TA.AperFunction,Conductor*
%ADD44C,0.500000*%
G04 #@! TD*
G04 #@! TA.AperFunction,Conductor*
%ADD45C,0.250000*%
G04 #@! TD*
G04 #@! TA.AperFunction,Conductor*
%ADD46C,1.000000*%
G04 #@! TD*
G04 #@! TA.AperFunction,Conductor*
%ADD47C,0.800000*%
G04 #@! TD*
G04 APERTURE END LIST*
D10*
X136462500Y-93350000D03*
X136462500Y-95250000D03*
X138337500Y-94300000D03*
D11*
X122200000Y-72375000D03*
X122200000Y-74025000D03*
D12*
X127887500Y-77025000D03*
X127887500Y-77675000D03*
X127887500Y-78325000D03*
X127887500Y-78975000D03*
X132112500Y-78975000D03*
X132112500Y-78325000D03*
X132112500Y-77675000D03*
X132112500Y-77025000D03*
D13*
X63850000Y-94600000D03*
X67150000Y-94600000D03*
D14*
X98200000Y-102150000D03*
X100500000Y-102150000D03*
X102800000Y-102150000D03*
D15*
X100500000Y-95850000D03*
D16*
X134625000Y-90700000D03*
X136175000Y-90700000D03*
D17*
X126600000Y-85600000D03*
D18*
X120500000Y-114787500D03*
X120500000Y-113212500D03*
D19*
X66450000Y-97562500D03*
X64550000Y-97562500D03*
X65500000Y-99437500D03*
D18*
X116500000Y-114787500D03*
X116500000Y-113212500D03*
D20*
X88000000Y-94000000D03*
X84000000Y-94000000D03*
D21*
X64000000Y-62000000D03*
D17*
X118500000Y-76500000D03*
D11*
X112000000Y-109775000D03*
X112000000Y-111425000D03*
D22*
X99475000Y-110000000D03*
X101125000Y-110000000D03*
D23*
X84850000Y-61600000D03*
X79750000Y-61600000D03*
X100250000Y-61600000D03*
X95150000Y-61600000D03*
D24*
X81850000Y-82500000D03*
X98150000Y-82500000D03*
D25*
X93425000Y-103400000D03*
X91775000Y-103400000D03*
D17*
X73500000Y-110500000D03*
D26*
X130020000Y-110350000D03*
X137980000Y-110350000D03*
X130020000Y-114850000D03*
X137980000Y-114850000D03*
D17*
X121000000Y-90000000D03*
D27*
X62000000Y-110500000D03*
D11*
X125400000Y-72375000D03*
X125400000Y-74025000D03*
D28*
X67750000Y-104000000D03*
X72050000Y-104000000D03*
D29*
X60862500Y-104000000D03*
X65137500Y-104000000D03*
D30*
X102300000Y-105087500D03*
X102300000Y-106912500D03*
D25*
X127425000Y-82600000D03*
X125775000Y-82600000D03*
D17*
X67500000Y-110500000D03*
D31*
X124400000Y-76325000D03*
X124400000Y-77875000D03*
D22*
X128975000Y-82600000D03*
X130625000Y-82600000D03*
D32*
X57550000Y-82300000D03*
X55650000Y-82300000D03*
D33*
X127550000Y-90690000D03*
X127550000Y-91960000D03*
X127550000Y-93230000D03*
X127550000Y-94500000D03*
X127550000Y-95770000D03*
X127550000Y-97040000D03*
X127550000Y-98310000D03*
X132500000Y-98310000D03*
X132500000Y-97040000D03*
X132500000Y-95770000D03*
X132500000Y-94500000D03*
X132500000Y-93230000D03*
X132500000Y-91960000D03*
X132500000Y-90690000D03*
D22*
X132475000Y-86900000D03*
X134125000Y-86900000D03*
D34*
X95550000Y-107537500D03*
X97450000Y-107537500D03*
X96500000Y-105662500D03*
D35*
X62525000Y-89000000D03*
X65475000Y-89000000D03*
D22*
X91775000Y-101500000D03*
X93425000Y-101500000D03*
D36*
X60850000Y-77700000D03*
X60850000Y-80000000D03*
D37*
X67150000Y-80000000D03*
D36*
X60850000Y-82300000D03*
D17*
X104800000Y-110500000D03*
D21*
X138000000Y-62000000D03*
D38*
X122100000Y-80925000D03*
X122100000Y-79275000D03*
D22*
X69775000Y-97600000D03*
X71425000Y-97600000D03*
D11*
X116500000Y-109775000D03*
X116500000Y-111425000D03*
D18*
X112000000Y-114787500D03*
X112000000Y-113212500D03*
D39*
X141675000Y-94300000D03*
X140125000Y-94300000D03*
D32*
X57550000Y-77700000D03*
X55650000Y-77700000D03*
D13*
X91450000Y-94000000D03*
X94750000Y-94000000D03*
D25*
X133825000Y-82600000D03*
X132175000Y-82600000D03*
D39*
X57375000Y-87000000D03*
X55825000Y-87000000D03*
D11*
X120500000Y-109775000D03*
X120500000Y-111425000D03*
D16*
X68525000Y-91000000D03*
X70075000Y-91000000D03*
D31*
X135300000Y-76825000D03*
X135300000Y-78375000D03*
D40*
X56000000Y-104000000D03*
D41*
X56000000Y-101000000D03*
D42*
X103500000Y-96000000D03*
X97500000Y-96000000D03*
X102500000Y-93750000D03*
X101000000Y-93750000D03*
X99500000Y-93750000D03*
X98000000Y-93750000D03*
X104000000Y-92250000D03*
X102500000Y-92250000D03*
X101000000Y-92250000D03*
X99500000Y-92250000D03*
X98000000Y-92250000D03*
X104000000Y-93750000D03*
X120500000Y-116000000D03*
X69000000Y-80000000D03*
X54000000Y-77500000D03*
D43*
X75000000Y-104000000D03*
X54500000Y-82500000D03*
D42*
X116500000Y-116000000D03*
X102500000Y-108500000D03*
X135000000Y-93000000D03*
X122500000Y-75500000D03*
D43*
X125500000Y-98500000D03*
X54500000Y-87000000D03*
D42*
X69000000Y-81500000D03*
X67000000Y-89000000D03*
D43*
X59000000Y-80000000D03*
D42*
X71500000Y-91000000D03*
X125832062Y-77832062D03*
X90500000Y-103500000D03*
X99000000Y-107000000D03*
X126653078Y-79225000D03*
X112000000Y-116000000D03*
X137500000Y-90500000D03*
X143000000Y-94500000D03*
X69000000Y-78500000D03*
X135325000Y-84000000D03*
D43*
X76500000Y-104000000D03*
D42*
X73000000Y-97500000D03*
X133926103Y-76926103D03*
X113500000Y-67000000D03*
X134500000Y-73500000D03*
X124500000Y-69000000D03*
X130500000Y-80325000D03*
X130000000Y-78775000D03*
D43*
X114000000Y-54500000D03*
X119000000Y-62000000D03*
X119000000Y-59500000D03*
X116500000Y-54500000D03*
X114000000Y-59500000D03*
X119000000Y-54500000D03*
X119000000Y-57000000D03*
X116500000Y-59500000D03*
X114000000Y-62000000D03*
X116500000Y-62000000D03*
X116500000Y-57000000D03*
X114000000Y-57000000D03*
D42*
X129000000Y-112500000D03*
X129000000Y-89000000D03*
X130000000Y-98500000D03*
X123500000Y-107500000D03*
X130000000Y-96000000D03*
X123500000Y-110000000D03*
X134500000Y-96025000D03*
X134500000Y-94475000D03*
D43*
X132000000Y-63500000D03*
X132000000Y-58500000D03*
X132000000Y-61000000D03*
X132000000Y-53500000D03*
X132000000Y-56000000D03*
D44*
X54000000Y-100600000D02*
X57375000Y-97225000D01*
X59603122Y-105500000D02*
X55222776Y-105500000D01*
X65803122Y-111700000D02*
X59603122Y-105500000D01*
X54000000Y-104277224D02*
X54000000Y-100600000D01*
X72300000Y-111700000D02*
X65803122Y-111700000D01*
X73500000Y-110500000D02*
X72300000Y-111700000D01*
X55222776Y-105500000D02*
X54000000Y-104277224D01*
X57375000Y-97225000D02*
X57375000Y-87000000D01*
X137300000Y-90700000D02*
X137500000Y-90500000D01*
D45*
X135300000Y-78375000D02*
X135325000Y-78400000D01*
D44*
X55650000Y-82300000D02*
X54700000Y-82300000D01*
D45*
X141675000Y-94300000D02*
X142800000Y-94300000D01*
X125789124Y-77875000D02*
X125832062Y-77832062D01*
D44*
X67500000Y-80000000D02*
X69000000Y-78500000D01*
D45*
X112000000Y-114787500D02*
X112000000Y-116000000D01*
X125690000Y-98310000D02*
X125500000Y-98500000D01*
X90600000Y-103400000D02*
X90500000Y-103500000D01*
X71425000Y-97600000D02*
X72900000Y-97600000D01*
X122200000Y-75200000D02*
X122500000Y-75500000D01*
D44*
X65475000Y-89000000D02*
X67000000Y-89000000D01*
D45*
X133800000Y-77052206D02*
X133926103Y-76926103D01*
D44*
X102300000Y-106912500D02*
X102300000Y-108300000D01*
D45*
X133800000Y-82575000D02*
X133800000Y-77052206D01*
D46*
X75000000Y-104000000D02*
X76500000Y-104000000D01*
D45*
X98462500Y-107537500D02*
X99000000Y-107000000D01*
D44*
X70075000Y-91000000D02*
X71500000Y-91000000D01*
D45*
X122200000Y-74025000D02*
X122200000Y-75200000D01*
X133825000Y-82600000D02*
X133800000Y-82575000D01*
D44*
X136175000Y-90700000D02*
X137300000Y-90700000D01*
D45*
X127550000Y-98310000D02*
X125690000Y-98310000D01*
D44*
X55825000Y-87000000D02*
X54500000Y-87000000D01*
D45*
X127887500Y-78975000D02*
X126903078Y-78975000D01*
X72900000Y-97600000D02*
X73000000Y-97500000D01*
D44*
X67500000Y-80000000D02*
X69000000Y-81500000D01*
X55650000Y-77700000D02*
X55650000Y-77650000D01*
D45*
X124400000Y-77875000D02*
X125789124Y-77875000D01*
X126903078Y-78975000D02*
X126653078Y-79225000D01*
D44*
X54700000Y-82300000D02*
X54500000Y-82500000D01*
D46*
X72050000Y-104000000D02*
X75000000Y-104000000D01*
D45*
X116500000Y-114787500D02*
X116500000Y-116000000D01*
D47*
X60850000Y-80000000D02*
X59000000Y-80000000D01*
D45*
X135350000Y-93350000D02*
X135000000Y-93000000D01*
X91775000Y-103400000D02*
X90600000Y-103400000D01*
D44*
X67150000Y-80000000D02*
X67500000Y-80000000D01*
X67150000Y-80000000D02*
X69000000Y-80000000D01*
X55500000Y-77500000D02*
X54000000Y-77500000D01*
D45*
X120500000Y-114787500D02*
X120500000Y-116000000D01*
X97450000Y-107537500D02*
X98462500Y-107537500D01*
D44*
X55650000Y-77650000D02*
X55500000Y-77500000D01*
D45*
X136462500Y-93350000D02*
X135350000Y-93350000D01*
D44*
X102300000Y-108300000D02*
X102500000Y-108500000D01*
D45*
X135325000Y-78400000D02*
X135325000Y-84000000D01*
X142800000Y-94300000D02*
X143000000Y-94500000D01*
X136462500Y-95250000D02*
X133020000Y-95250000D01*
X132500000Y-95770000D02*
X131525001Y-95770000D01*
X133020000Y-95250000D02*
X132500000Y-95770000D01*
X130255001Y-94500000D02*
X127550000Y-94500000D01*
X131525001Y-95770000D02*
X130255001Y-94500000D01*
D44*
X57550000Y-82300000D02*
X56600000Y-81350000D01*
X138337500Y-94300000D02*
X137980000Y-94657500D01*
X138337500Y-93634816D02*
X138337500Y-94300000D01*
D45*
X132112500Y-77025000D02*
X132475000Y-77025000D01*
D44*
X134000000Y-75000000D02*
X133000000Y-76000000D01*
X125775000Y-82600000D02*
X126700000Y-83525000D01*
X134625000Y-90700000D02*
X136425000Y-92500000D01*
X57550000Y-86825000D02*
X57375000Y-87000000D01*
X132475000Y-86900000D02*
X132475000Y-90665000D01*
X128595000Y-108925000D02*
X112850000Y-108925000D01*
X125775000Y-82600000D02*
X130075000Y-86900000D01*
D45*
X132475000Y-77025000D02*
X132500000Y-77000000D01*
D44*
X60850000Y-82300000D02*
X57550000Y-82300000D01*
X134299780Y-83525000D02*
X134675000Y-83149780D01*
X132510000Y-90700000D02*
X132500000Y-90690000D01*
X134375000Y-78961828D02*
X134375000Y-77750000D01*
X134675000Y-83149780D02*
X134675000Y-79261828D01*
X125775000Y-82600000D02*
X125900000Y-82600000D01*
X134500000Y-75000000D02*
X134000000Y-75000000D01*
X137980000Y-94657500D02*
X137980000Y-110350000D01*
X130020000Y-110350000D02*
X128595000Y-108925000D01*
X134500000Y-73500000D02*
X134500000Y-75000000D01*
X130020000Y-110350000D02*
X137980000Y-110350000D01*
X138337500Y-94300000D02*
X140125000Y-94300000D01*
X134375000Y-77750000D02*
X135300000Y-76825000D01*
X132475000Y-90665000D02*
X132500000Y-90690000D01*
X136425000Y-92500000D02*
X137202684Y-92500000D01*
X137202684Y-92500000D02*
X138337500Y-93634816D01*
X134625000Y-90700000D02*
X132510000Y-90700000D01*
D45*
X133000000Y-76137500D02*
X133000000Y-76000000D01*
D44*
X130075000Y-86900000D02*
X132475000Y-86900000D01*
X126700000Y-83525000D02*
X134299780Y-83525000D01*
X56600000Y-76928122D02*
X64978122Y-68550000D01*
X64978122Y-68550000D02*
X111950000Y-68550000D01*
X111950000Y-68550000D02*
X113500000Y-67000000D01*
X112850000Y-108925000D02*
X112000000Y-109775000D01*
X134675000Y-79261828D02*
X134375000Y-78961828D01*
D45*
X132112500Y-77025000D02*
X133000000Y-76137500D01*
D44*
X57550000Y-82300000D02*
X57550000Y-86825000D01*
X134500000Y-76025000D02*
X135300000Y-76825000D01*
X134500000Y-75000000D02*
X134500000Y-76025000D01*
X56600000Y-81350000D02*
X56600000Y-76928122D01*
D45*
X124500000Y-69000000D02*
X125400000Y-69900000D01*
X125400000Y-72375000D02*
X122200000Y-72375000D01*
X125400000Y-69900000D02*
X125400000Y-72375000D01*
X136100000Y-84925000D02*
X134125000Y-86900000D01*
X131310140Y-77675000D02*
X132112500Y-77675000D01*
X134821016Y-72725000D02*
X136100000Y-74003984D01*
X126000000Y-90000000D02*
X121000000Y-90000000D01*
X126690000Y-90690000D02*
X126000000Y-90000000D01*
X117425000Y-80565000D02*
X127550000Y-90690000D01*
X134178984Y-72725000D02*
X134821016Y-72725000D01*
X136100000Y-74003984D02*
X136100000Y-84925000D01*
X130660140Y-77025000D02*
X131310140Y-77675000D01*
X125898004Y-73300000D02*
X120179720Y-73300000D01*
X120179720Y-73300000D02*
X117425000Y-76054720D01*
X127887500Y-77025000D02*
X130660140Y-77025000D01*
X130273004Y-77675000D02*
X130273004Y-76630980D01*
X127887500Y-75289496D02*
X125898004Y-73300000D01*
X130273004Y-76630980D02*
X134178984Y-72725000D01*
X127887500Y-77025000D02*
X127887500Y-75289496D01*
X132112500Y-77675000D02*
X130273004Y-77675000D01*
X117425000Y-76054720D02*
X117425000Y-80565000D01*
X127550000Y-90690000D02*
X126690000Y-90690000D01*
X125485140Y-79275000D02*
X127085140Y-77675000D01*
X125485140Y-79275000D02*
X126210140Y-80000000D01*
X122100000Y-79275000D02*
X125485140Y-79275000D01*
X125400000Y-74025000D02*
X125400000Y-75325000D01*
X122100000Y-79275000D02*
X121275000Y-79275000D01*
X124400000Y-76325000D02*
X122100000Y-78625000D01*
X126974094Y-80000000D02*
X127424094Y-79550000D01*
X125400000Y-75325000D02*
X124400000Y-76325000D01*
X127085140Y-77675000D02*
X127887500Y-77675000D01*
X122100000Y-78625000D02*
X122100000Y-79275000D01*
X127424094Y-79550000D02*
X131537500Y-79550000D01*
X131537500Y-79550000D02*
X132112500Y-78975000D01*
X121275000Y-79275000D02*
X118500000Y-76500000D01*
X126210140Y-80000000D02*
X126974094Y-80000000D01*
X128975000Y-82600000D02*
X128975000Y-81850000D01*
X125351996Y-81800000D02*
X126625000Y-81800000D01*
X126625000Y-81800000D02*
X127425000Y-82600000D01*
X125050000Y-84050000D02*
X125050000Y-82101996D01*
X128975000Y-81850000D02*
X130500000Y-80325000D01*
X126600000Y-85600000D02*
X125050000Y-84050000D01*
X125050000Y-82101996D02*
X125351996Y-81800000D01*
X129550000Y-78325000D02*
X127887500Y-78325000D01*
X127425000Y-82600000D02*
X128975000Y-82600000D01*
X130000000Y-78775000D02*
X129550000Y-78325000D01*
X132924999Y-78325000D02*
X132112500Y-78325000D01*
X133250000Y-81525000D02*
X133250000Y-78650001D01*
X133250000Y-78650001D02*
X132924999Y-78325000D01*
X132175000Y-82600000D02*
X130625000Y-82600000D01*
X132175000Y-82600000D02*
X133250000Y-81525000D01*
D47*
X60928858Y-77700000D02*
X60850000Y-77700000D01*
X62025000Y-100087500D02*
X64550000Y-97562500D01*
X64175000Y-94600000D02*
X64550000Y-94975000D01*
X76500000Y-82500000D02*
X81850000Y-82500000D01*
X64550000Y-91025000D02*
X62525000Y-89000000D01*
X64550000Y-97562500D02*
X64550000Y-94975000D01*
X68525000Y-91097960D02*
X71427040Y-94000000D01*
X62525000Y-79296142D02*
X60928858Y-77700000D01*
X60850000Y-77700000D02*
X57550000Y-77700000D01*
X64550000Y-97562500D02*
X64550000Y-91025000D01*
X67500000Y-110500000D02*
X62025000Y-105025000D01*
X63850000Y-94600000D02*
X64175000Y-94600000D01*
X68525000Y-90475000D02*
X76500000Y-82500000D01*
X68525000Y-91000000D02*
X68525000Y-90475000D01*
X64550000Y-94975000D02*
X68525000Y-91000000D01*
X71427040Y-94000000D02*
X84000000Y-94000000D01*
X62025000Y-105025000D02*
X62025000Y-100087500D01*
X68525000Y-91000000D02*
X68525000Y-91097960D01*
X62525000Y-89000000D02*
X62525000Y-79296142D01*
D45*
X69737500Y-97562500D02*
X69775000Y-97600000D01*
X66450000Y-95300000D02*
X67150000Y-94600000D01*
X66450000Y-97562500D02*
X66450000Y-95300000D01*
X66450000Y-97562500D02*
X69737500Y-97562500D01*
X98200000Y-103962500D02*
X96500000Y-105662500D01*
X98200000Y-102150000D02*
X98200000Y-103962500D01*
X96500000Y-105662500D02*
X96162500Y-105662500D01*
X93900000Y-103400000D02*
X93425000Y-103400000D01*
X93425000Y-103400000D02*
X93425000Y-101500000D01*
X96162500Y-105662500D02*
X93900000Y-103400000D01*
D44*
X98650000Y-94000000D02*
X100500000Y-95850000D01*
X94750000Y-94000000D02*
X98650000Y-94000000D01*
X94750000Y-85900000D02*
X98150000Y-82500000D01*
X100500000Y-102150000D02*
X100500000Y-95850000D01*
X94750000Y-94000000D02*
X94750000Y-85900000D01*
X106500000Y-108800000D02*
X104800000Y-110500000D01*
X102800000Y-102150000D02*
X106500000Y-105850000D01*
D45*
X101125000Y-110000000D02*
X101125000Y-106262500D01*
D44*
X106500000Y-105850000D02*
X106500000Y-108800000D01*
D45*
X101125000Y-106262500D02*
X102300000Y-105087500D01*
D44*
X102800000Y-102150000D02*
X102800000Y-104587500D01*
X102800000Y-104587500D02*
X102300000Y-105087500D01*
D45*
X120500000Y-111425000D02*
X120500000Y-113212500D01*
D46*
X65137500Y-104000000D02*
X67750000Y-104000000D01*
X65137500Y-104000000D02*
X65137500Y-99800000D01*
X65137500Y-99800000D02*
X65500000Y-99437500D01*
D45*
X116500000Y-111425000D02*
X116500000Y-113212500D01*
D44*
X88000000Y-94000000D02*
X91450000Y-94000000D01*
D45*
X112000000Y-111425000D02*
X112000000Y-113212500D01*
X99475000Y-110000000D02*
X98012500Y-110000000D01*
X98012500Y-110000000D02*
X95550000Y-107537500D01*
X130020000Y-113520000D02*
X130020000Y-114850000D01*
X128000000Y-89000000D02*
X129000000Y-89000000D01*
X122100000Y-80925000D02*
X122100000Y-83100000D01*
X122100000Y-83100000D02*
X128000000Y-89000000D01*
X129000000Y-112500000D02*
X130020000Y-113520000D01*
X130020000Y-114850000D02*
X137980000Y-114850000D01*
D46*
X56000000Y-104000000D02*
X60862500Y-104000000D01*
D45*
X127550000Y-91960000D02*
X127169092Y-91960000D01*
X125800000Y-93329092D02*
X125800000Y-96264999D01*
X126575001Y-97040000D02*
X127550000Y-97040000D01*
X127169092Y-91960000D02*
X125800000Y-93329092D01*
X125800000Y-96264999D02*
X126575001Y-97040000D01*
X127550000Y-97040000D02*
X132500000Y-97040000D01*
X130000000Y-98500000D02*
X123500000Y-105000000D01*
X123275000Y-109775000D02*
X120500000Y-109775000D01*
X126575001Y-95770000D02*
X127550000Y-95770000D01*
X123500000Y-105000000D02*
X123500000Y-107500000D01*
X127550000Y-95770000D02*
X129770000Y-95770000D01*
X126250000Y-93555001D02*
X126250000Y-95444999D01*
X129770000Y-95770000D02*
X130000000Y-96000000D01*
X127550000Y-93230000D02*
X126575001Y-93230000D01*
X126575001Y-93230000D02*
X126250000Y-93555001D01*
X123500000Y-110000000D02*
X123275000Y-109775000D01*
X126250000Y-95444999D02*
X126575001Y-95770000D01*
X126544092Y-97685000D02*
X131875000Y-97685000D01*
X126524092Y-91335000D02*
X125350000Y-92509092D01*
X125350000Y-96490908D02*
X126544092Y-97685000D01*
X132500000Y-93230000D02*
X132500000Y-91960000D01*
X131875000Y-97685000D02*
X132500000Y-98310000D01*
X131875000Y-91335000D02*
X126524092Y-91335000D01*
X125350000Y-92509092D02*
X125350000Y-96490908D01*
X132500000Y-91960000D02*
X131875000Y-91335000D01*
X124110908Y-108350000D02*
X108500000Y-108350000D01*
X92700000Y-102425000D02*
X91775000Y-101500000D01*
X116500000Y-109775000D02*
X115775000Y-110500000D01*
X105245280Y-111575000D02*
X98174092Y-111575000D01*
X134475000Y-94500000D02*
X134500000Y-94475000D01*
X134500000Y-97960908D02*
X124110908Y-108350000D01*
X98174092Y-111575000D02*
X92700000Y-106100908D01*
X108500000Y-108350000D02*
X108470280Y-108350000D01*
X134500000Y-96025000D02*
X134500000Y-97960908D01*
X110650000Y-110500000D02*
X108500000Y-108350000D01*
X108470280Y-108350000D02*
X105245280Y-111575000D01*
X92700000Y-106100908D02*
X92700000Y-102425000D01*
X132500000Y-94500000D02*
X134475000Y-94500000D01*
X115775000Y-110500000D02*
X110650000Y-110500000D01*
G04 #@! TA.AperFunction,Conductor*
G36*
X140425500Y-52019962D02*
G01*
X140480038Y-52074500D01*
X140500000Y-52149000D01*
X140500000Y-66851000D01*
X140480038Y-66925500D01*
X140425500Y-66980038D01*
X140351000Y-67000000D01*
X131149000Y-67000000D01*
X131074500Y-66980038D01*
X131019962Y-66925500D01*
X131000000Y-66851000D01*
X131000000Y-52149000D01*
X131019962Y-52074500D01*
X131074500Y-52019962D01*
X131149000Y-52000000D01*
X140351000Y-52000000D01*
X140425500Y-52019962D01*
G37*
G04 #@! TD.AperFunction*
G04 #@! TA.AperFunction,Conductor*
G36*
X87425500Y-52019962D02*
G01*
X87480038Y-52074500D01*
X87500000Y-52149000D01*
X87500000Y-63351000D01*
X87480038Y-63425500D01*
X87425500Y-63480038D01*
X87351000Y-63500000D01*
X87000000Y-63500000D01*
X87000000Y-66150500D01*
X86980038Y-66225000D01*
X86925500Y-66279538D01*
X86851000Y-66299500D01*
X64830616Y-66299500D01*
X64796589Y-66303979D01*
X64796587Y-66303979D01*
X64538136Y-66338004D01*
X64313390Y-66398224D01*
X64313389Y-66398225D01*
X64253170Y-66414361D01*
X64253167Y-66414361D01*
X64253160Y-66414364D01*
X63980610Y-66527259D01*
X63725124Y-66674764D01*
X63725123Y-66674764D01*
X63491079Y-66854354D01*
X63491078Y-66854355D01*
X62889075Y-67456359D01*
X62822280Y-67494923D01*
X62783716Y-67500000D01*
X59149000Y-67500000D01*
X59074500Y-67480038D01*
X59019962Y-67425500D01*
X59000000Y-67351000D01*
X59000000Y-52149000D01*
X59019962Y-52074500D01*
X59074500Y-52019962D01*
X59149000Y-52000000D01*
X87351000Y-52000000D01*
X87425500Y-52019962D01*
G37*
G04 #@! TD.AperFunction*
G04 #@! TA.AperFunction,Conductor*
G36*
X120925500Y-52019962D02*
G01*
X120980038Y-52074500D01*
X121000000Y-52149000D01*
X121000000Y-63851000D01*
X120980038Y-63925500D01*
X120925500Y-63980038D01*
X120851000Y-64000000D01*
X93149000Y-64000000D01*
X93074500Y-63980038D01*
X93019962Y-63925500D01*
X93000000Y-63851000D01*
X93000000Y-63500000D01*
X92149000Y-63500000D01*
X92074500Y-63480038D01*
X92019962Y-63425500D01*
X92000000Y-63351000D01*
X92000000Y-52149000D01*
X92019962Y-52074500D01*
X92074500Y-52019962D01*
X92149000Y-52000000D01*
X120851000Y-52000000D01*
X120925500Y-52019962D01*
G37*
G04 #@! TD.AperFunction*
G04 #@! TA.AperFunction,Conductor*
G36*
X107943039Y-79019685D02*
G01*
X107988794Y-79072489D01*
X108000000Y-79124000D01*
X108000000Y-97376000D01*
X107980315Y-97443039D01*
X107927511Y-97488794D01*
X107876000Y-97500000D01*
X93624000Y-97500000D01*
X93556961Y-97480315D01*
X93511206Y-97427511D01*
X93500000Y-97376000D01*
X93500000Y-82368905D01*
X96150000Y-82368905D01*
X96150000Y-82631094D01*
X96184220Y-82891009D01*
X96184222Y-82891020D01*
X96252075Y-83144255D01*
X96352404Y-83386471D01*
X96352409Y-83386482D01*
X96483488Y-83613516D01*
X96483494Y-83613524D01*
X96570080Y-83726365D01*
X97377546Y-82918899D01*
X97470343Y-83057780D01*
X97592220Y-83179657D01*
X97731099Y-83272452D01*
X96923633Y-84079917D01*
X96923633Y-84079918D01*
X97036475Y-84166505D01*
X97036483Y-84166511D01*
X97263517Y-84297590D01*
X97263528Y-84297595D01*
X97505744Y-84397924D01*
X97758979Y-84465777D01*
X97758990Y-84465779D01*
X98018905Y-84499999D01*
X98018920Y-84500000D01*
X98281080Y-84500000D01*
X98281094Y-84499999D01*
X98541009Y-84465779D01*
X98541020Y-84465777D01*
X98794255Y-84397924D01*
X99036471Y-84297595D01*
X99036482Y-84297590D01*
X99263516Y-84166511D01*
X99263534Y-84166499D01*
X99376365Y-84079919D01*
X99376365Y-84079917D01*
X98568900Y-83272453D01*
X98707780Y-83179657D01*
X98829657Y-83057780D01*
X98922452Y-82918900D01*
X99729917Y-83726365D01*
X99729919Y-83726365D01*
X99816499Y-83613534D01*
X99816511Y-83613516D01*
X99947590Y-83386482D01*
X99947595Y-83386471D01*
X100047924Y-83144255D01*
X100115777Y-82891020D01*
X100115779Y-82891009D01*
X100149999Y-82631094D01*
X100150000Y-82631080D01*
X100150000Y-82368919D01*
X100149999Y-82368905D01*
X100115779Y-82108990D01*
X100115777Y-82108979D01*
X100047924Y-81855744D01*
X99947595Y-81613528D01*
X99947590Y-81613517D01*
X99816511Y-81386483D01*
X99816505Y-81386475D01*
X99729918Y-81273633D01*
X99729917Y-81273633D01*
X98922452Y-82081098D01*
X98829657Y-81942220D01*
X98707780Y-81820343D01*
X98568899Y-81727545D01*
X99376365Y-80920080D01*
X99263524Y-80833494D01*
X99263516Y-80833488D01*
X99036482Y-80702409D01*
X99036471Y-80702404D01*
X98794255Y-80602075D01*
X98541020Y-80534222D01*
X98541009Y-80534220D01*
X98281094Y-80500000D01*
X98018905Y-80500000D01*
X97758990Y-80534220D01*
X97758979Y-80534222D01*
X97505744Y-80602075D01*
X97263528Y-80702404D01*
X97263517Y-80702409D01*
X97036471Y-80833496D01*
X96923633Y-80920079D01*
X96923633Y-80920080D01*
X97731099Y-81727546D01*
X97592220Y-81820343D01*
X97470343Y-81942220D01*
X97377546Y-82081099D01*
X96570080Y-81273633D01*
X96570079Y-81273633D01*
X96483496Y-81386471D01*
X96352409Y-81613517D01*
X96352404Y-81613528D01*
X96252075Y-81855744D01*
X96184222Y-82108979D01*
X96184220Y-82108990D01*
X96150000Y-82368905D01*
X93500000Y-82368905D01*
X93500000Y-79124000D01*
X93519685Y-79056961D01*
X93572489Y-79011206D01*
X93624000Y-79000000D01*
X107876000Y-79000000D01*
X107943039Y-79019685D01*
G37*
G04 #@! TD.AperFunction*
M02*
