G04 #@! TF.GenerationSoftware,KiCad,Pcbnew,10.0.6*
G04 #@! TF.CreationDate,2026-10-06T18:57:39+02:00*
G04 #@! TF.ProjectId,recruitment,72656372-7569-4746-9d65-6e742e6b6963,A*
G04 #@! TF.SameCoordinates,Original*
G04 #@! TF.FileFunction,Paste,Top*
G04 #@! TF.FilePolarity,Positive*
%FSLAX46Y46*%
G04 Gerber Fmt 4.6, Leading zero omitted, Abs format (unit mm)*
G04 Created by KiCad (PCBNEW 10.0.6) date 2026-10-06 18:57:39*
%MOMM*%
%LPD*%
G01*
G04 APERTURE LIST*
G04 Aperture macros list*
%AMRoundRect*
0 Rectangle with rounded corners*
0 $1 Rounding radius*
0 $2 $3 $4 $5 $6 $7 $8 $9 X,Y pos of 4 corners*
0 Add a 4 corners polygon primitive as box body*
4,1,4,$2,$3,$4,$5,$6,$7,$8,$9,$2,$3,0*
0 Add four circle primitives for the rounded corners*
1,1,$1+$1,$2,$3*
1,1,$1+$1,$4,$5*
1,1,$1+$1,$6,$7*
1,1,$1+$1,$8,$9*
0 Add four rect primitives between the rounded corners*
20,1,$1+$1,$2,$3,$4,$5,0*
20,1,$1+$1,$4,$5,$6,$7,0*
20,1,$1+$1,$6,$7,$8,$9,0*
20,1,$1+$1,$8,$9,$2,$3,0*%
G04 Aperture macros list end*
%ADD10RoundRect,0.150000X-0.587500X-0.150000X0.587500X-0.150000X0.587500X0.150000X-0.587500X0.150000X0*%
%ADD11RoundRect,0.200000X-0.275000X0.200000X-0.275000X-0.200000X0.275000X-0.200000X0.275000X0.200000X0*%
%ADD12RoundRect,0.125000X-0.687500X-0.125000X0.687500X-0.125000X0.687500X0.125000X-0.687500X0.125000X0*%
%ADD13RoundRect,0.225000X-0.225000X-0.375000X0.225000X-0.375000X0.225000X0.375000X-0.225000X0.375000X0*%
%ADD14RoundRect,0.375000X0.375000X-0.625000X0.375000X0.625000X-0.375000X0.625000X-0.375000X-0.625000X0*%
%ADD15RoundRect,0.500000X1.400000X-0.500000X1.400000X0.500000X-1.400000X0.500000X-1.400000X-0.500000X0*%
%ADD16RoundRect,0.225000X-0.225000X-0.250000X0.225000X-0.250000X0.225000X0.250000X-0.225000X0.250000X0*%
%ADD17RoundRect,0.218750X0.256250X-0.218750X0.256250X0.218750X-0.256250X0.218750X-0.256250X-0.218750X0*%
%ADD18RoundRect,0.150000X-0.150000X0.587500X-0.150000X-0.587500X0.150000X-0.587500X0.150000X0.587500X0*%
%ADD19RoundRect,0.250000X1.000000X0.650000X-1.000000X0.650000X-1.000000X-0.650000X1.000000X-0.650000X0*%
%ADD20RoundRect,0.200000X-0.200000X-0.275000X0.200000X-0.275000X0.200000X0.275000X-0.200000X0.275000X0*%
%ADD21RoundRect,0.200000X0.200000X0.275000X-0.200000X0.275000X-0.200000X-0.275000X0.200000X-0.275000X0*%
%ADD22RoundRect,0.250000X-0.525000X-0.400000X0.525000X-0.400000X0.525000X0.400000X-0.525000X0.400000X0*%
%ADD23RoundRect,0.250000X-1.000000X-0.900000X1.000000X-0.900000X1.000000X0.900000X-1.000000X0.900000X0*%
%ADD24RoundRect,0.250000X-0.312500X-1.450000X0.312500X-1.450000X0.312500X1.450000X-0.312500X1.450000X0*%
%ADD25RoundRect,0.250000X-0.450000X0.262500X-0.450000X-0.262500X0.450000X-0.262500X0.450000X0.262500X0*%
%ADD26RoundRect,0.225000X-0.250000X0.225000X-0.250000X-0.225000X0.250000X-0.225000X0.250000X0.225000X0*%
%ADD27RoundRect,0.250000X0.250000X0.475000X-0.250000X0.475000X-0.250000X-0.475000X0.250000X-0.475000X0*%
%ADD28RoundRect,0.150000X-0.825000X-0.150000X0.825000X-0.150000X0.825000X0.150000X-0.825000X0.150000X0*%
%ADD29RoundRect,0.150000X0.150000X-0.587500X0.150000X0.587500X-0.150000X0.587500X-0.150000X-0.587500X0*%
%ADD30RoundRect,0.250000X-0.325000X-1.100000X0.325000X-1.100000X0.325000X1.100000X-0.325000X1.100000X0*%
%ADD31RoundRect,0.375000X-0.625000X-0.375000X0.625000X-0.375000X0.625000X0.375000X-0.625000X0.375000X0*%
%ADD32RoundRect,0.500000X-0.500000X-1.400000X0.500000X-1.400000X0.500000X1.400000X-0.500000X1.400000X0*%
%ADD33RoundRect,0.200000X0.275000X-0.200000X0.275000X0.200000X-0.275000X0.200000X-0.275000X-0.200000X0*%
%ADD34RoundRect,0.225000X0.225000X0.250000X-0.225000X0.250000X-0.225000X-0.250000X0.225000X-0.250000X0*%
G04 APERTURE END LIST*
D10*
X136462500Y-93350000D03*
X136462500Y-95250000D03*
X138337500Y-94300000D03*
D11*
X122200000Y-72375000D03*
X122200000Y-74025000D03*
D12*
X127887500Y-77025000D03*
X127887500Y-77675000D03*
X127887500Y-78325000D03*
X127887500Y-78975000D03*
X132112500Y-78975000D03*
X132112500Y-78325000D03*
X132112500Y-77675000D03*
X132112500Y-77025000D03*
D13*
X63850000Y-94600000D03*
X67150000Y-94600000D03*
D14*
X98200000Y-102150000D03*
X100500000Y-102150000D03*
X102800000Y-102150000D03*
D15*
X100500000Y-95850000D03*
D16*
X134625000Y-90700000D03*
X136175000Y-90700000D03*
D17*
X120500000Y-114787500D03*
X120500000Y-113212500D03*
D18*
X66450000Y-97562500D03*
X64550000Y-97562500D03*
X65500000Y-99437500D03*
D17*
X116500000Y-114787500D03*
X116500000Y-113212500D03*
D19*
X88000000Y-94000000D03*
X84000000Y-94000000D03*
D11*
X112000000Y-109775000D03*
X112000000Y-111425000D03*
D20*
X99475000Y-110000000D03*
X101125000Y-110000000D03*
D21*
X93425000Y-103400000D03*
X91775000Y-103400000D03*
D22*
X130020000Y-110350000D03*
X137980000Y-110350000D03*
X130020000Y-114850000D03*
X137980000Y-114850000D03*
D11*
X125400000Y-72375000D03*
X125400000Y-74025000D03*
D23*
X67750000Y-104000000D03*
X72050000Y-104000000D03*
D24*
X60862500Y-104000000D03*
X65137500Y-104000000D03*
D25*
X102300000Y-105087500D03*
X102300000Y-106912500D03*
D21*
X127425000Y-82600000D03*
X125775000Y-82600000D03*
D26*
X124400000Y-76325000D03*
X124400000Y-77875000D03*
D20*
X128975000Y-82600000D03*
X130625000Y-82600000D03*
D27*
X57550000Y-82300000D03*
X55650000Y-82300000D03*
D28*
X127550000Y-90690000D03*
X127550000Y-91960000D03*
X127550000Y-93230000D03*
X127550000Y-94500000D03*
X127550000Y-95770000D03*
X127550000Y-97040000D03*
X127550000Y-98310000D03*
X132500000Y-98310000D03*
X132500000Y-97040000D03*
X132500000Y-95770000D03*
X132500000Y-94500000D03*
X132500000Y-93230000D03*
X132500000Y-91960000D03*
X132500000Y-90690000D03*
D20*
X132475000Y-86900000D03*
X134125000Y-86900000D03*
D29*
X95550000Y-107537500D03*
X97450000Y-107537500D03*
X96500000Y-105662500D03*
D30*
X62525000Y-89000000D03*
X65475000Y-89000000D03*
D20*
X91775000Y-101500000D03*
X93425000Y-101500000D03*
D31*
X60850000Y-77700000D03*
X60850000Y-80000000D03*
D32*
X67150000Y-80000000D03*
D31*
X60850000Y-82300000D03*
D33*
X122100000Y-80925000D03*
X122100000Y-79275000D03*
D20*
X69775000Y-97600000D03*
X71425000Y-97600000D03*
D11*
X116500000Y-109775000D03*
X116500000Y-111425000D03*
D17*
X112000000Y-114787500D03*
X112000000Y-113212500D03*
D34*
X141675000Y-94300000D03*
X140125000Y-94300000D03*
D27*
X57550000Y-77700000D03*
X55650000Y-77700000D03*
D13*
X91450000Y-94000000D03*
X94750000Y-94000000D03*
D21*
X133825000Y-82600000D03*
X132175000Y-82600000D03*
D34*
X57375000Y-87000000D03*
X55825000Y-87000000D03*
D11*
X120500000Y-109775000D03*
X120500000Y-111425000D03*
D16*
X68525000Y-91000000D03*
X70075000Y-91000000D03*
D26*
X135300000Y-76825000D03*
X135300000Y-78375000D03*
M02*
